<?xml version="1.0" encoding="UTF-8" standalone="no"?>
<!-- Created with Inkscape (http://www.inkscape.org/) -->

<svg
   xmlns:dc="http://purl.org/dc/elements/1.1/"
   xmlns:cc="http://creativecommons.org/ns#"
   xmlns:rdf="http://www.w3.org/1999/02/22-rdf-syntax-ns#"
   xmlns:svg="http://www.w3.org/2000/svg"
   xmlns="http://www.w3.org/2000/svg"
   xmlns:sodipodi="http://sodipodi.sourceforge.net/DTD/sodipodi-0.dtd"
   xmlns:inkscape="http://www.inkscape.org/namespaces/inkscape"
   width="93.029152mm"
   height="19.702991mm"
   viewBox="0 0 329.63085 69.813749"
   id="svg2"
   version="1.1"
   inkscape:version="0.91 r13725"
   sodipodi:docname="logo.svg">
  <defs
     id="defs4">
    <clipPath
       id="clipPath3356"
       clipPathUnits="userSpaceOnUse">
      <path
         inkscape:connector-curvature="0"
         id="path3358"
         d="M 0,792 612,792 612,0 0,0 0,792 Z" />
    </clipPath>
    <clipPath
       id="clipPath3416"
       clipPathUnits="userSpaceOnUse">
      <path
         inkscape:connector-curvature="0"
         id="path3418"
         d="m 158.586,436.874 122.622,0 0,87.126 -122.622,0 0,-87.126 z" />
    </clipPath>
    <clipPath
       id="clipPath3492"
       clipPathUnits="userSpaceOnUse">
      <path
         inkscape:connector-curvature="0"
         id="path3494"
         d="m 158.586,437.664 122.313,0 0,85.589 -122.313,0 0,-85.589 z" />
    </clipPath>
    <clipPath
       id="clipPath3508"
       clipPathUnits="userSpaceOnUse">
      <path
         inkscape:connector-curvature="0"
         id="path3510"
         d="m 158.586,436.874 122.622,0 0,87.126 -122.622,0 0,-87.126 z" />
    </clipPath>
    <clipPath
       id="clipPath3872"
       clipPathUnits="userSpaceOnUse">
      <path
         inkscape:connector-curvature="0"
         id="path3874"
         d="m 158.586,437.664 122.313,0 0,85.589 -122.313,0 0,-85.589 z" />
    </clipPath>
    <clipPath
       id="clipPath3888"
       clipPathUnits="userSpaceOnUse">
      <path
         inkscape:connector-curvature="0"
         id="path3890"
         d="m 158.586,436.874 122.622,0 0,87.126 -122.622,0 0,-87.126 z" />
    </clipPath>
    <clipPath
       id="clipPath6380"
       clipPathUnits="userSpaceOnUse">
      <path
         inkscape:connector-curvature="0"
         id="path6382"
         d="m 156.587,326.137 122.622,0 0,87.126 -122.622,0 0,-87.126 z" />
    </clipPath>
    <clipPath
       id="clipPath6456"
       clipPathUnits="userSpaceOnUse">
      <path
         inkscape:connector-curvature="0"
         id="path6458"
         d="m 156.587,326.927 122.313,0 0,85.589 -122.313,0 0,-85.589 z" />
    </clipPath>
    <clipPath
       id="clipPath6472"
       clipPathUnits="userSpaceOnUse">
      <path
         inkscape:connector-curvature="0"
         id="path6474"
         d="m 156.587,326.137 122.622,0 0,87.126 -122.622,0 0,-87.126 z" />
    </clipPath>
    <clipPath
       id="clipPath6836"
       clipPathUnits="userSpaceOnUse">
      <path
         inkscape:connector-curvature="0"
         id="path6838"
         d="m 156.587,326.927 122.313,0 0,85.589 -122.313,0 0,-85.589 z" />
    </clipPath>
    <clipPath
       id="clipPath6852"
       clipPathUnits="userSpaceOnUse">
      <path
         inkscape:connector-curvature="0"
         id="path6854"
         d="m 156.587,326.137 122.622,0 0,87.126 -122.622,0 0,-87.126 z" />
    </clipPath>
    <clipPath
       id="clipPath9344"
       clipPathUnits="userSpaceOnUse">
      <path
         inkscape:connector-curvature="0"
         id="path9346"
         d="m 156.646,205.4 122.622,0 0,87.126 -122.622,0 0,-87.126 z" />
    </clipPath>
    <clipPath
       id="clipPath9420"
       clipPathUnits="userSpaceOnUse">
      <path
         inkscape:connector-curvature="0"
         id="path9422"
         d="m 156.646,206.19 122.313,0 0,85.589 -122.313,0 0,-85.589 z" />
    </clipPath>
    <clipPath
       id="clipPath9436"
       clipPathUnits="userSpaceOnUse">
      <path
         inkscape:connector-curvature="0"
         id="path9438"
         d="m 156.646,205.4 122.622,0 0,87.126 -122.622,0 0,-87.126 z" />
    </clipPath>
    <clipPath
       id="clipPath9800"
       clipPathUnits="userSpaceOnUse">
      <path
         inkscape:connector-curvature="0"
         id="path9802"
         d="m 156.646,206.19 122.313,0 0,85.589 -122.313,0 0,-85.589 z" />
    </clipPath>
    <clipPath
       id="clipPath9816"
       clipPathUnits="userSpaceOnUse">
      <path
         inkscape:connector-curvature="0"
         id="path9818"
         d="m 156.646,205.4 122.622,0 0,87.126 -122.622,0 0,-87.126 z" />
    </clipPath>
    <clipPath
       id="clipPath12308"
       clipPathUnits="userSpaceOnUse">
      <path
         inkscape:connector-curvature="0"
         id="path12310"
         d="m 373.452,436.875 122.623,0 0,87.126 -122.623,0 0,-87.126 z" />
    </clipPath>
    <clipPath
       id="clipPath12384"
       clipPathUnits="userSpaceOnUse">
      <path
         inkscape:connector-curvature="0"
         id="path12386"
         d="m 373.452,437.665 122.313,0 0,85.59 -122.313,0 0,-85.59 z" />
    </clipPath>
    <clipPath
       id="clipPath12400"
       clipPathUnits="userSpaceOnUse">
      <path
         inkscape:connector-curvature="0"
         id="path12402"
         d="m 373.452,436.875 122.623,0 0,87.126 -122.623,0 0,-87.126 z" />
    </clipPath>
    <clipPath
       id="clipPath12764"
       clipPathUnits="userSpaceOnUse">
      <path
         inkscape:connector-curvature="0"
         id="path12766"
         d="m 373.452,437.665 122.313,0 0,85.59 -122.313,0 0,-85.59 z" />
    </clipPath>
    <clipPath
       id="clipPath12780"
       clipPathUnits="userSpaceOnUse">
      <path
         inkscape:connector-curvature="0"
         id="path12782"
         d="m 373.452,436.875 122.623,0 0,87.126 -122.623,0 0,-87.126 z" />
    </clipPath>
    <clipPath
       id="clipPath15272"
       clipPathUnits="userSpaceOnUse">
      <path
         inkscape:connector-curvature="0"
         id="path15274"
         d="m 373.452,326.134 122.623,0 0,87.126 -122.623,0 0,-87.126 z" />
    </clipPath>
    <clipPath
       id="clipPath15712"
       clipPathUnits="userSpaceOnUse">
      <path
         inkscape:connector-curvature="0"
         id="path15714"
         d="m 373.452,327.155 122.319,0 0,85.358 -122.319,0 0,-85.358 z" />
    </clipPath>
    <clipPath
       id="clipPath15728"
       clipPathUnits="userSpaceOnUse">
      <path
         inkscape:connector-curvature="0"
         id="path15730"
         d="m 373.452,326.134 122.623,0 0,87.126 -122.623,0 0,-87.126 z" />
    </clipPath>
    <clipPath
       id="clipPath18318"
       clipPathUnits="userSpaceOnUse">
      <path
         inkscape:connector-curvature="0"
         id="path18320"
         d="m 374.646,205.4 122.623,0 0,87.126 -122.623,0 0,-87.126 z" />
    </clipPath>
    <clipPath
       id="clipPath18394"
       clipPathUnits="userSpaceOnUse">
      <path
         inkscape:connector-curvature="0"
         id="path18396"
         d="m 374.646,206.286 122.313,0 0,85.589 -122.313,0 0,-85.589 z" />
    </clipPath>
    <clipPath
       id="clipPath18410"
       clipPathUnits="userSpaceOnUse">
      <path
         inkscape:connector-curvature="0"
         id="path18412"
         d="m 374.646,205.4 122.623,0 0,87.126 -122.623,0 0,-87.126 z" />
    </clipPath>
    <clipPath
       id="clipPath18774"
       clipPathUnits="userSpaceOnUse">
      <path
         inkscape:connector-curvature="0"
         id="path18776"
         d="m 374.646,206.286 122.313,0 0,85.589 -122.313,0 0,-85.589 z" />
    </clipPath>
    <clipPath
       id="clipPath18790"
       clipPathUnits="userSpaceOnUse">
      <path
         inkscape:connector-curvature="0"
         id="path18792"
         d="m 374.646,205.4 122.623,0 0,87.126 -122.623,0 0,-87.126 z" />
    </clipPath>
    <clipPath
       id="clipPath21282"
       clipPathUnits="userSpaceOnUse">
      <path
         inkscape:connector-curvature="0"
         id="path21284"
         d="M 0,0 612,0 612,792 0,792 0,0 Z" />
    </clipPath>
    <clipPath
       id="clipPath21290"
       clipPathUnits="userSpaceOnUse">
      <path
         inkscape:connector-curvature="0"
         id="path21292"
         d="m 399.16,293.82 73.85,0 0,-79.4 -73.85,0 0,79.4 z" />
    </clipPath>
    <clipPath
       id="clipPath21306"
       clipPathUnits="userSpaceOnUse">
      <path
         inkscape:connector-curvature="0"
         id="path21308"
         d="m 399.16,293.82 73.85,0 0,-79.4 -73.85,0 0,79.4 z" />
    </clipPath>
    <clipPath
       id="clipPath30361"
       clipPathUnits="userSpaceOnUse">
      <path
         inkscape:connector-curvature="0"
         id="path30363"
         d="M 0,792 612,792 612,0 0,0 0,792 Z" />
    </clipPath>
    <clipPath
       id="clipPath30499"
       clipPathUnits="userSpaceOnUse">
      <path
         inkscape:connector-curvature="0"
         id="path30501"
         d="m 212.986,451.384 195.714,0 0,50.882 -195.714,0 0,-50.882 z" />
    </clipPath>
  </defs>
  <sodipodi:namedview
     id="base"
     pagecolor="#ffffff"
     bordercolor="#666666"
     borderopacity="1.0"
     inkscape:pageopacity="0.0"
     inkscape:pageshadow="2"
     inkscape:zoom="1"
     inkscape:cx="177.17801"
     inkscape:cy="9.4902057"
     inkscape:document-units="px"
     inkscape:current-layer="layer1"
     showgrid="false"
     fit-margin-top="0"
     fit-margin-left="0"
     fit-margin-right="0"
     fit-margin-bottom="0"
     inkscape:window-width="1333"
     inkscape:window-height="1044"
     inkscape:window-x="-7"
     inkscape:window-y="0"
     inkscape:window-maximized="0" />
  <metadata
     id="metadata7">
    <rdf:RDF>
      <cc:Work
         rdf:about="">
        <dc:format>image/svg+xml</dc:format>
        <dc:type
           rdf:resource="http://purl.org/dc/dcmitype/StillImage" />
        <dc:title></dc:title>
      </cc:Work>
    </rdf:RDF>
  </metadata>
  <g
     inkscape:label="Calque 1"
     inkscape:groupmode="layer"
     id="layer1"
     transform="translate(-373.90611,-238.38282)">
    <g
       id="g30495"
       transform="matrix(1.6734088,0,0,-1.6734088,18.554119,1079.1031)">
      <g
         id="g30497"
         clip-path="url(#clipPath30499)">
        <g
           id="g30503"
           transform="translate(225.6619,482.4078)">
          <path
             d="m 0,0 c -0.179,-0.868 -0.69,-2.326 -1.022,-3.066 -0.665,-1.355 -2.505,-3.068 -4.447,-3.068 -2.377,0 -3.297,1.176 -3.297,2.403 0,0.894 0.486,1.584 1.38,1.584 0.946,0 1.099,-0.793 1.099,-1.073 0,-0.307 -0.102,-0.742 -0.23,-0.869 -0.102,-0.102 -0.153,-0.23 -0.153,-0.435 0,-0.511 0.588,-0.792 1.125,-0.792 1.329,0 2.044,1.074 2.503,2.836 0.308,1.202 0.768,3.222 1.713,6.748 L -1.482,4.319 C -1.84,3.833 -3.297,1.764 -6.747,1.764 c -3.527,0 -5.929,2.478 -5.929,6.9 0,3.296 1.508,6.082 3.399,7.998 1.431,1.432 3.655,2.991 7.207,2.991 2.658,0 4.013,-0.87 4.523,-1.278 0.333,-0.255 0.562,-0.306 0.691,-0.306 0.306,0 0.46,0.254 0.613,0.817 0.025,0.128 0.102,0.154 0.23,0.128 L 4.37,18.912 C 4.473,18.886 4.549,18.835 4.524,18.708 L 3.067,13.57 C 3.015,13.417 2.965,13.391 2.786,13.417 l -0.409,0.051 c -0.128,0.025 -0.205,0.102 -0.179,0.256 0.434,2.198 -0.818,4.881 -4.14,4.881 -1.636,0 -3.476,-0.562 -5.264,-2.914 -1.483,-1.865 -2.327,-4.625 -2.327,-7.718 0,-4.191 2.582,-4.856 3.706,-4.856 3.067,0 4.549,2.633 4.652,4.141 0.076,0.971 -0.205,1.175 -0.895,1.175 l -0.895,0 c -0.204,0 -0.229,0.077 -0.178,0.256 l 0.101,0.562 c 0.026,0.154 0.077,0.205 0.282,0.205 0.384,0 1.278,-0.077 3.527,-0.077 1.738,0 2.351,0.077 2.708,0.077 0.18,0 0.256,-0.077 0.231,-0.205 L 3.629,8.638 C 3.604,8.484 3.552,8.433 3.399,8.433 l -0.536,0 C 2.377,8.433 2.019,8.229 1.687,6.874 L 0,0 Z"
             style="fill:#0e2b58;fill-opacity:1;fill-rule:nonzero;stroke:none"
             id="path30505"
             inkscape:connector-curvature="0" />
        </g>
        <g
           id="g30507"
           transform="translate(245.6448,488.9502)">
          <path
             d="m 0,0 c 0.051,-0.051 0.102,-0.102 0.051,-0.281 l -1.329,-3.732 c -0.102,-0.408 -0.256,-0.459 -0.562,-0.459 -0.205,0 -1.252,0.025 -2.709,0.051 -1.457,0.025 -3.297,0.025 -5.06,0.025 l -3.323,0 c -0.792,0 -1.533,-0.025 -2.121,-0.025 -0.562,-0.026 -0.971,-0.051 -1.125,-0.051 -0.127,0 -0.178,0.051 -0.153,0.204 l 0.102,0.665 c 0.026,0.101 0.077,0.153 0.179,0.153 l 0.818,0 c 1.022,0 1.534,0.51 1.789,1.355 l 3.91,12.139 c 0.434,1.38 -0.486,1.737 -1.252,1.737 l -0.818,0 c -0.128,0 -0.205,0.103 -0.153,0.256 l 0.153,0.562 c 0.051,0.154 0.102,0.204 0.307,0.204 0.153,0 0.767,-0.024 1.482,-0.024 0.741,-0.026 1.585,-0.051 2.198,-0.051 l 1.84,0 c 1.84,0 3.246,0 4.268,0.025 1.022,0.026 1.635,0.05 1.917,0.05 0.409,0 0.46,-0.101 0.562,-0.51 L 1.738,8.868 C 1.789,8.689 1.789,8.689 1.636,8.587 L 1.329,8.433 c -0.102,-0.05 -0.154,0 -0.307,0.154 l -2.607,3.016 c -0.153,0.153 -0.306,0.204 -0.46,0.204 l -3.986,0 -2.147,-6.62 2.197,0 c 1.099,0 2.096,0.129 3.016,2.123 0.051,0.101 0.102,0.152 0.205,0.152 L -2.3,7.31 c 0.102,0 0.153,-0.103 0.102,-0.154 C -2.607,6.185 -3.425,3.015 -3.527,2.044 -3.578,1.891 -3.629,1.891 -3.731,1.891 l -0.46,0 c -0.154,0.051 -0.154,0.102 -0.154,0.256 0,1.84 -0.971,2.121 -2.811,2.121 l -1.278,0 -2.504,-7.744 5.724,0 c 0.869,0 1.585,0.384 2.249,0.972 0.562,0.46 1.942,2.198 2.351,2.658 0.052,0.101 0.154,0.152 0.307,0.051 L 0,0 Z"
             style="fill:#0e2b58;fill-opacity:1;fill-rule:nonzero;stroke:none"
             id="path30509"
             inkscape:connector-curvature="0" />
        </g>
        <g
           id="g30511"
           transform="translate(255.123,498.9432)">
          <path
             d="m 0,0 c -2.095,-2.351 -3.629,-6.134 -3.629,-8.945 0,-3.169 1.687,-4.651 3.783,-4.651 3.731,0 7.054,5.724 7.104,11.245 0,2.555 -1.278,4.242 -3.577,4.242 C 2.147,1.891 0.92,1.073 0,0 m 10.019,-4.345 c 0,-5.111 -3.629,-10.427 -9.405,-10.427 -1.022,0 -3.016,0.153 -4.601,1.687 -1.584,1.533 -2.249,3.577 -2.249,5.878 0,5.315 3.885,10.324 9.303,10.324 4.089,0 6.952,-2.759 6.952,-7.462"
             style="fill:#0e2b58;fill-opacity:1;fill-rule:nonzero;stroke:none"
             id="path30513"
             inkscape:connector-curvature="0" />
        </g>
        <g
           id="g30515"
           transform="translate(272.2692,493.7034)">
          <path
             d="m 0,0 c 1.022,0 2.351,-0.102 4.089,0.614 1.329,0.562 2.504,1.993 2.504,3.833 0,1.073 -0.767,2.735 -3.271,2.735 -0.46,0 -0.767,0 -1.073,-0.051 L 0,0 Z m -1.994,-6.363 c -0.434,-1.381 -0.153,-1.841 0.563,-1.841 l 1.073,0 c 0.153,0 0.204,-0.102 0.153,-0.204 l -0.051,-0.613 c -0.051,-0.153 -0.153,-0.205 -0.306,-0.205 -0.307,0 -1.432,0.077 -3.629,0.077 -1.789,0 -2.761,-0.077 -3.067,-0.077 -0.154,0 -0.205,0.103 -0.154,0.256 l 0.102,0.562 c 0,0.153 0.052,0.204 0.256,0.204 l 0.664,0 c 0.614,0 1.074,0.563 1.278,1.202 l 4.09,12.753 c 0.255,0.817 0.102,1.277 -0.767,1.277 l -0.869,0 c -0.205,0 -0.256,0.051 -0.205,0.205 L -2.76,7.77 c 0.051,0.153 0.102,0.204 0.357,0.204 2.659,0 5.316,0.076 6.032,0.076 2.197,0 6.031,-0.178 6.031,-3.705 0,-2.505 -2.709,-4.549 -6.031,-4.907 l 0,-0.102 c 0.818,-0.204 1.227,-0.972 1.482,-1.483 0.153,-0.255 1.891,-3.884 2.326,-4.574 0.69,-1.073 1.304,-1.483 2.223,-1.483 l 0.665,0 c 0.153,0 0.204,-0.102 0.153,-0.255 L 10.427,-8.97 c -0.051,-0.153 -0.102,-0.256 -0.256,-0.256 -0.255,0 -0.664,0.077 -2.044,0.077 -1.483,0 -1.943,-0.077 -2.351,-0.077 -0.256,0 -0.358,0.256 -0.716,0.844 -0.358,0.612 -2.607,5.622 -2.914,6.235 -0.613,1.407 -1.738,1.253 -2.427,1.253 l -1.713,-5.469 z"
             style="fill:#0e2b58;fill-opacity:1;fill-rule:nonzero;stroke:none"
             id="path30517"
             inkscape:connector-curvature="0" />
        </g>
        <g
           id="g30519"
           transform="translate(295.114,489.4613)">
          <path
             d="m 0,0 c 0.204,1.022 -0.204,1.227 -0.92,1.227 l -0.843,0 c -0.205,0 -0.256,0.128 -0.231,0.281 l 0.103,0.536 c 0.025,0.154 0.102,0.205 0.255,0.205 0.409,0 1.278,-0.077 3.374,-0.077 2.044,0 2.658,0.077 3.016,0.077 0.153,0 0.23,-0.102 0.204,-0.307 L 4.907,1.431 C 4.881,1.278 4.804,1.227 4.651,1.227 l -0.408,0 C 3.629,1.227 3.169,1.022 3.016,0.357 L 2.147,-3.552 C 2.07,-3.859 1.942,-3.962 1.636,-4.114 0.92,-4.421 -1.278,-5.29 -3.475,-5.29 c -4.754,0 -7.617,3.22 -7.617,6.951 0,6.185 5.009,10.938 10.734,10.938 2.198,0 3.629,-0.869 4.14,-1.278 0.307,-0.254 0.511,-0.306 0.614,-0.306 0.307,0 0.46,0.255 0.715,0.818 0,0.102 0.103,0.153 0.256,0.102 l 0.358,-0.102 c 0.102,0 0.153,-0.052 0.153,-0.204 L 4.396,6.517 C 4.345,6.363 4.293,6.312 4.14,6.363 l -0.511,0 c -0.154,0 -0.205,0.102 -0.154,0.308 0.307,2.197 -0.766,4.881 -4.037,4.881 -3.936,0 -7.309,-4.729 -7.309,-10.173 0,-3.934 2.351,-5.544 4.293,-5.544 1.278,0 2.147,0.332 2.505,0.588 0.255,0.152 0.409,0.511 0.511,0.919 L 0,0 Z"
             style="fill:#0e2b58;fill-opacity:1;fill-rule:nonzero;stroke:none"
             id="path30521"
             inkscape:connector-curvature="0" />
        </g>
        <g
           id="g30523"
           transform="translate(316.1954,488.9502)">
          <path
             d="m 0,0 c 0.051,-0.051 0.102,-0.102 0.051,-0.281 l -1.329,-3.732 c -0.102,-0.408 -0.255,-0.459 -0.563,-0.459 -0.204,0 -1.251,0.025 -2.708,0.051 -1.457,0.025 -3.297,0.025 -5.06,0.025 l -3.323,0 c -0.792,0 -1.533,-0.025 -2.121,-0.025 -0.562,-0.026 -0.971,-0.051 -1.125,-0.051 -0.128,0 -0.178,0.051 -0.153,0.204 l 0.102,0.665 c 0.026,0.101 0.077,0.153 0.179,0.153 l 0.818,0 c 1.022,0 1.533,0.51 1.789,1.355 l 3.911,12.139 c 0.433,1.38 -0.487,1.737 -1.253,1.737 l -0.818,0 c -0.128,0 -0.205,0.103 -0.153,0.256 l 0.153,0.562 c 0.051,0.154 0.102,0.204 0.307,0.204 0.153,0 0.766,-0.024 1.482,-0.024 0.741,-0.026 1.585,-0.051 2.198,-0.051 l 1.84,0 c 1.84,0 3.246,0 4.268,0.025 1.022,0.026 1.635,0.05 1.916,0.05 0.41,0 0.461,-0.101 0.563,-0.51 L 1.737,8.868 C 1.789,8.689 1.789,8.689 1.636,8.587 L 1.329,8.433 c -0.103,-0.05 -0.154,0 -0.307,0.154 l -2.607,3.016 c -0.153,0.153 -0.307,0.204 -0.46,0.204 l -3.987,0 -2.146,-6.62 2.198,0 c 1.098,0 2.095,0.129 3.015,2.123 0.051,0.101 0.102,0.152 0.205,0.152 L -2.301,7.31 c 0.103,0 0.154,-0.103 0.103,-0.154 C -2.607,6.185 -3.425,3.015 -3.527,2.044 -3.578,1.891 -3.629,1.891 -3.731,1.891 l -0.46,0 c -0.154,0.051 -0.154,0.102 -0.154,0.256 0,1.84 -0.971,2.121 -2.811,2.121 l -1.278,0 -2.504,-7.744 5.724,0 c 0.869,0 1.585,0.384 2.249,0.972 0.562,0.46 1.943,2.198 2.351,2.658 0.052,0.101 0.154,0.152 0.307,0.051 L 0,0 Z"
             style="fill:#0e2b58;fill-opacity:1;fill-rule:nonzero;stroke:none"
             id="path30525"
             inkscape:connector-curvature="0" />
        </g>
        <g
           id="g30527"
           transform="translate(332.4206,501.6777)">
          <path
             d="m 0,0 c 2.301,0 3.221,0.204 3.681,0.46 0.102,0.051 0.153,0.102 0.255,0.102 0.103,0 0.206,-0.051 0.206,-0.204 -0.052,-0.409 -0.308,-4.14 -0.257,-5.163 0,-0.153 -0.051,-0.204 -0.204,-0.23 l -0.41,-0.077 c -0.152,0 -0.255,0.103 -0.356,0.409 -0.206,0.818 -0.665,2.403 -1.023,3.068 -0.563,0.434 -2.403,0.663 -3.579,0.663 l -0.51,0 -4.039,-13.034 c -0.509,-1.61 -0.255,-2.172 1.073,-2.172 l 1.023,0 c 0.129,0 0.18,-0.102 0.154,-0.255 l -0.103,-0.511 c -0.025,-0.179 -0.127,-0.256 -0.306,-0.256 -0.358,0 -1.38,0.077 -3.783,0.077 -2.505,0 -3.859,-0.077 -4.114,-0.077 -0.178,0 -0.256,0.102 -0.23,0.256 l 0.052,0.562 c 0.024,0.153 0.101,0.204 0.306,0.204 l 0.664,0 c 1.432,0 1.918,0.665 2.505,2.582 l 3.935,12.624 -0.664,0 c -2.352,0 -3.475,-0.127 -4.064,-0.562 -0.895,-0.664 -2.223,-2.147 -2.836,-2.862 -0.103,-0.102 -0.206,-0.102 -0.307,-0.102 l -0.408,0.255 c -0.103,0.051 -0.103,0.154 -0.051,0.256 0.306,0.562 1.89,4.14 1.94,4.293 0.052,0.154 0.103,0.256 0.256,0.256 0.103,0 0.206,-0.051 0.409,-0.204 C -10.274,0.204 -9.047,0 -6.388,0 L 0,0 Z"
             style="fill:#0e2b58;fill-opacity:1;fill-rule:nonzero;stroke:none"
             id="path30529"
             inkscape:connector-curvature="0" />
        </g>
        <g
           id="g30531"
           transform="translate(342.8444,498.9432)">
          <path
             d="m 0,0 c -2.095,-2.351 -3.628,-6.134 -3.628,-8.945 0,-3.169 1.686,-4.651 3.781,-4.651 3.733,0 7.055,5.724 7.107,11.245 0,2.555 -1.279,4.242 -3.579,4.242 C 2.148,1.891 0.921,1.073 0,0 m 10.019,-4.345 c 0,-5.111 -3.629,-10.427 -9.405,-10.427 -1.022,0 -3.016,0.153 -4.6,1.687 -1.585,1.533 -2.249,3.577 -2.249,5.878 0,5.315 3.885,10.324 9.303,10.324 4.089,0 6.951,-2.759 6.951,-7.462"
             style="fill:#0e2b58;fill-opacity:1;fill-rule:nonzero;stroke:none"
             id="path30533"
             inkscape:connector-curvature="0" />
        </g>
        <g
           id="g30535"
           transform="translate(358.2531,489.0014)">
          <path
             d="m 0,0 c -0.051,-0.307 0.153,-0.408 0.409,-0.102 0.153,0.153 5.826,8.331 5.93,8.484 0.612,0.921 0.92,1.943 0.92,2.479 0,0.512 -0.205,0.869 -0.665,0.869 l -0.359,0 c -0.152,0 -0.203,0.051 -0.203,0.179 l 0.102,0.69 c 0.051,0.103 0.101,0.153 0.306,0.153 0.255,0 0.921,-0.076 2.505,-0.076 1.483,0 2.145,0.076 2.453,0.076 0.206,0 0.257,-0.05 0.23,-0.204 L 11.552,11.935 C 11.501,11.781 11.45,11.73 11.245,11.73 l -0.409,0 c -0.46,0 -0.716,-0.306 -0.818,-1.2 L 8.74,-0.102 c -0.051,-0.46 0.103,-0.511 0.358,-0.205 0.512,0.562 3.017,4.703 3.526,5.571 1.228,2.045 2.352,4.447 2.582,5.138 0.23,0.665 0.179,1.328 -0.587,1.328 l -0.409,0 c -0.153,0 -0.255,0.051 -0.204,0.23 l 0.101,0.537 c 0,0.205 0.103,0.255 0.255,0.255 0.358,0 0.972,-0.076 2.301,-0.076 1.534,0 2.198,0.076 2.555,0.076 0.206,0 0.281,-0.05 0.258,-0.178 L 19.373,11.935 C 19.321,11.781 19.27,11.73 19.168,11.73 l -0.461,0 c -0.459,0 -0.92,-0.153 -1.328,-0.689 C 17.123,10.682 13.289,4.345 12.676,3.323 11.961,2.147 8.612,-2.786 7.513,-4.141 7.182,-4.549 6.876,-4.958 6.465,-4.958 c -0.407,0 -0.51,0.357 -0.458,0.92 L 6.747,6.696 C 6.798,7.002 6.594,7.002 6.39,6.746 6.134,6.389 -0.766,-3.194 -1.712,-4.293 c -0.307,-0.359 -0.563,-0.665 -0.971,-0.665 -0.333,0 -0.46,0.357 -0.358,1.073 l 1.815,14.287 c 0.101,0.868 0,1.328 -0.563,1.328 l -0.613,0 c -0.205,0 -0.256,0.051 -0.231,0.23 l 0.078,0.588 c 0.052,0.154 0.102,0.204 0.306,0.204 0.255,0 1.278,-0.076 2.965,-0.076 1.585,0 2.555,0.076 2.861,0.076 0.256,0 0.307,-0.05 0.256,-0.229 L 3.731,11.935 C 3.731,11.833 3.68,11.73 3.475,11.73 l -0.408,0 c -0.818,0 -1.175,-0.306 -1.355,-1.354 L 0,0 Z"
             style="fill:#0e2b58;fill-opacity:1;fill-rule:nonzero;stroke:none"
             id="path30537"
             inkscape:connector-curvature="0" />
        </g>
        <g
           id="g30539"
           transform="translate(372.486,487.1096)">
          <path
             d="m 0,0 c 0,1.38 0.895,2.095 1.586,2.095 0.664,0 1.252,-0.357 1.252,-1.225 0,-0.742 -0.715,-1.099 -0.845,-1.662 -0.103,-0.485 0.281,-1.047 1.713,-1.047 2.455,0 4.524,1.941 5.648,3.475 1.814,2.53 3.834,8.101 3.834,10.632 0,0.588 -0.307,0.766 -0.868,0.766 -1.56,0 -3.017,0.025 -4.473,-0.435 C 6.799,12.293 5.801,11.603 5.801,10.99 5.801,10.683 5.981,10.121 6.516,9.967 7.309,9.84 7.667,9.38 7.667,8.818 c 0,-0.563 -0.486,-1.1 -1.278,-1.1 -0.894,0 -1.661,0.971 -1.661,2.198 0,1.304 0.563,2.683 1.764,3.553 1.841,1.303 4.395,1.099 8.996,1.099 0.486,0 0.639,-0.179 0.741,-0.588 0.869,-3.91 3.246,-10.453 4.626,-12.676 0.178,-0.307 0.307,-0.077 0.409,0.408 1.124,5.061 2.76,9.994 5.597,12.166 1.302,1.022 2.53,1.278 3.578,1.278 1.533,0 2.248,-0.895 2.248,-1.738 0,-0.716 -0.612,-1.278 -1.252,-1.278 -0.537,0 -0.92,0.409 -1.125,0.716 -0.127,0.306 -0.561,0.588 -0.919,0.588 -0.486,0 -0.997,-0.103 -1.816,-0.691 -1.762,-1.278 -3.757,-3.987 -5.391,-11.321 -0.41,-1.866 0.025,-2.403 0.281,-2.837 1.303,-2.224 5.035,-6.951 9.481,-6.951 1.304,0 2.224,0.562 2.428,1.405 0.256,1.125 0.588,1.635 1.1,1.635 0.561,0 0.74,-0.485 0.74,-0.868 0,-0.333 -0.306,-1.099 -0.767,-1.584 -0.434,-0.487 -1.788,-1.918 -4.727,-1.918 -5.189,0 -8.536,4.116 -10.045,6.109 -2.887,3.808 -5.212,9.456 -6.466,14.515 -0.051,0.231 -0.204,0.256 -0.28,-0.152 C 13.341,7.539 12.241,4.218 10.938,1.994 9.61,-0.358 7.309,-3.22 3.579,-3.22 1.764,-3.22 0,-2.095 0,0"
             style="fill:#0e2b58;fill-opacity:1;fill-rule:nonzero;stroke:none"
             id="path30541"
             inkscape:connector-curvature="0" />
        </g>
        <g
           id="g30543"
           transform="translate(246.0274,468.4819)">
          <path
             d="m 0,0 c -1.406,-4.524 -3.425,-7.539 -8.127,-7.539 -3.323,0 -5.776,1.533 -5.776,4.676 0,1.074 0.358,2.658 0.512,3.22 l 2.197,7.079 c 0.358,1.176 0,1.585 -0.716,1.585 l -0.92,0 c -0.101,0 -0.204,0.051 -0.152,0.205 l 0.102,0.613 c 0.05,0.154 0.102,0.204 0.357,0.204 0.307,0 1.176,-0.076 3.527,-0.076 2.045,0 2.914,0.076 3.169,0.076 0.205,0 0.256,-0.101 0.256,-0.306 L -5.674,9.226 C -5.699,9.123 -5.776,9.021 -5.929,9.021 l -0.715,0 c -0.511,0 -1.151,-0.102 -1.534,-1.354 l -2.096,-6.85 c -0.153,-0.562 -0.766,-2.453 -0.766,-3.551 0,-3.119 2.709,-3.425 3.475,-3.425 1.176,0 2.505,0.408 3.323,1.124 1.175,1.022 2.044,2.403 2.862,5.189 l 1.84,6.542 c 0.486,1.712 0.205,2.325 -0.613,2.325 l -0.818,0 c -0.204,0 -0.256,0.102 -0.23,0.205 l 0.077,0.562 c 0.051,0.154 0.102,0.255 0.357,0.255 0.307,0 1.279,-0.076 2.914,-0.076 1.482,0 2.044,0.076 2.3,0.076 0.255,0 0.307,-0.101 0.255,-0.306 L 4.601,9.226 C 4.601,9.123 4.549,9.021 4.345,9.021 l -0.409,0 C 3.118,9.021 2.607,8.281 2.198,7.002 L 0,0 Z"
             style="fill:#0e2b58;fill-opacity:1;fill-rule:nonzero;stroke:none"
             id="path30545"
             inkscape:connector-curvature="0" />
        </g>
        <g
           id="g30547"
           transform="translate(255.0207,474.9734)">
          <path
             d="m 0,0 c -0.153,0.256 -0.358,0.256 -0.408,-0.051 l -2.557,-8.536 c -0.868,-2.914 -0.766,-4.115 0.307,-4.115 l 0.971,0 c 0.205,0 0.256,-0.103 0.256,-0.255 l -0.102,-0.537 c -0.052,-0.179 -0.052,-0.23 -0.307,-0.23 -0.255,0 -1.329,0.076 -3.067,0.076 -1.788,0 -2.606,-0.076 -2.913,-0.076 -0.154,0 -0.205,0.102 -0.179,0.281 l 0.076,0.537 c 0.052,0.101 0.103,0.204 0.256,0.204 l 0.562,0 c 1.176,0 1.789,0.869 2.556,3.144 l 3.118,9.864 C -0.945,1.815 -1.482,2.53 -2.556,2.53 l -0.971,0 c -0.204,0 -0.255,0.102 -0.204,0.307 l 0.102,0.459 c 0.051,0.154 0.102,0.256 0.306,0.256 0.307,0 1.33,-0.076 4.345,-0.076 0.461,0 0.614,-0.307 0.767,-0.665 L 7.463,-8.997 c 0.204,-0.306 0.307,-0.255 0.511,0.358 l 2.709,8.281 c 0.664,2.07 0.46,2.888 -0.41,2.888 l -0.766,0 C 9.251,2.53 9.2,2.581 9.251,2.786 l 0.052,0.562 c 0.051,0.102 0.102,0.204 0.255,0.204 0.307,0 1.125,-0.076 2.914,-0.076 1.329,0 1.84,0.076 2.197,0.076 0.256,0 0.307,-0.153 0.256,-0.358 l -0.102,-0.46 c 0,-0.153 -0.051,-0.204 -0.205,-0.204 l -0.664,0 C 13.34,2.53 12.83,1.916 12.318,0.46 L 7.616,-12.983 c -0.153,-0.409 -0.358,-0.613 -0.511,-0.665 -0.256,0 -0.511,0.154 -0.665,0.512 L 0,0 Z"
             style="fill:#0e2b58;fill-opacity:1;fill-rule:nonzero;stroke:none"
             id="path30549"
             inkscape:connector-curvature="0" />
        </g>
        <g
           id="g30551"
           transform="translate(272.9838,475.816)">
          <path
             d="m 0,0 c 0.358,1.278 -0.051,1.687 -0.715,1.687 l -1.176,0 c -0.204,0 -0.256,0.051 -0.256,0.205 l 0.153,0.665 c 0,0.102 0.103,0.152 0.307,0.152 0.307,0 1.687,-0.076 3.731,-0.076 2.198,0 3.272,0.076 3.63,0.076 0.255,0 0.358,-0.101 0.306,-0.306 L 5.828,1.892 C 5.828,1.789 5.776,1.687 5.572,1.687 l -0.665,0 c -1.074,0 -1.661,-0.255 -2.045,-1.712 l -3.168,-11.781 c -0.333,-1.228 0.05,-1.739 1.124,-1.739 l 0.92,0 c 0.153,0 0.205,-0.102 0.153,-0.255 L 1.84,-14.311 c -0.051,-0.205 -0.051,-0.256 -0.307,-0.256 -0.307,0 -1.482,0.077 -4.089,0.077 -2.147,0 -3.476,-0.077 -3.782,-0.077 -0.153,0 -0.204,0.102 -0.204,0.256 l 0.153,0.562 c 0,0.153 0.051,0.204 0.205,0.204 l 0.971,0 c 1.482,0 1.635,0.511 1.993,1.815 L 0,0 Z"
             style="fill:#0e2b58;fill-opacity:1;fill-rule:nonzero;stroke:none"
             id="path30553"
             inkscape:connector-curvature="0" />
        </g>
        <g
           id="g30555"
           transform="translate(290.259,475.3816)">
          <path
             d="m 0,0 c 0.92,1.227 1.022,2.121 0.307,2.121 l -0.512,0 c -0.255,0 -0.306,0.103 -0.281,0.256 l 0.128,0.563 c 0,0.153 0.051,0.204 0.307,0.204 0.358,0 1.226,-0.076 2.606,-0.076 1.483,0 2.147,0.076 2.454,0.076 0.255,0 0.307,-0.102 0.281,-0.23 L 5.214,2.377 C 5.162,2.224 5.111,2.121 4.958,2.121 l -0.562,0 c -0.869,0 -2.172,-1.277 -3.17,-2.529 L -9.686,-14.107 c -0.153,-0.205 -0.46,-0.46 -0.818,-0.46 -0.409,0 -0.46,0.358 -0.357,0.971 l 2.018,14.338 c 0.102,0.766 -0.153,1.379 -0.971,1.379 l -0.818,0 c -0.204,0 -0.306,0.051 -0.255,0.23 l 0.153,0.537 c 0.051,0.205 0.051,0.256 0.256,0.256 0.357,0 1.431,-0.076 3.629,-0.076 1.839,0 2.913,0.076 3.22,0.076 0.255,0 0.306,-0.051 0.255,-0.23 L -3.45,2.326 C -3.476,2.172 -3.527,2.121 -3.731,2.121 l -0.716,0 c -0.818,0 -1.278,-0.306 -1.406,-1.047 L -7.616,-9.149 c -0.102,-0.665 0.204,-0.716 0.562,-0.256 L 0,0 Z"
             style="fill:#0e2b58;fill-opacity:1;fill-rule:nonzero;stroke:none"
             id="path30557"
             inkscape:connector-curvature="0" />
        </g>
        <g
           id="g30559"
           transform="translate(307.6098,465.7218)">
          <path
             d="m 0,0 c 0.051,-0.051 0.101,-0.102 0.051,-0.282 l -1.329,-3.731 c -0.102,-0.408 -0.256,-0.46 -0.562,-0.46 -0.205,0 -1.253,0.026 -2.709,0.052 -1.457,0.025 -3.297,0.025 -5.061,0.025 l -3.322,0 c -0.793,0 -1.534,-0.025 -2.121,-0.025 -0.562,-0.026 -0.971,-0.052 -1.125,-0.052 -0.127,0 -0.178,0.052 -0.153,0.205 l 0.102,0.665 c 0.026,0.101 0.077,0.152 0.179,0.152 l 0.818,0 c 1.022,0 1.533,0.511 1.789,1.355 l 3.911,12.14 c 0.433,1.379 -0.487,1.737 -1.253,1.737 l -0.818,0 c -0.128,0 -0.205,0.102 -0.154,0.256 l 0.154,0.562 c 0.051,0.154 0.102,0.204 0.306,0.204 0.154,0 0.767,-0.025 1.483,-0.025 0.741,-0.025 1.585,-0.051 2.198,-0.051 l 1.84,0 c 1.839,0 3.246,0 4.267,0.026 1.023,0.025 1.636,0.05 1.917,0.05 0.41,0 0.46,-0.102 0.563,-0.511 L 1.737,8.868 C 1.789,8.689 1.789,8.689 1.636,8.587 L 1.329,8.433 c -0.103,-0.05 -0.154,0 -0.307,0.154 l -2.607,3.016 c -0.153,0.152 -0.307,0.203 -0.46,0.203 l -3.987,0 -2.146,-6.619 2.197,0 c 1.099,0 2.096,0.128 3.016,2.123 0.051,0.101 0.102,0.152 0.205,0.152 L -2.301,7.31 c 0.103,0 0.154,-0.103 0.103,-0.154 C -2.607,6.185 -3.425,3.015 -3.528,2.044 -3.579,1.89 -3.63,1.89 -3.731,1.89 l -0.46,0 c -0.154,0.051 -0.154,0.103 -0.154,0.256 0,1.841 -0.971,2.122 -2.811,2.122 l -1.278,0 -2.505,-7.744 5.725,0 c 0.869,0 1.584,0.384 2.249,0.972 0.562,0.46 1.943,2.198 2.351,2.657 0.052,0.101 0.154,0.153 0.307,0.051 L 0,0 Z"
             style="fill:#0e2b58;fill-opacity:1;fill-rule:nonzero;stroke:none"
             id="path30561"
             inkscape:connector-curvature="0" />
        </g>
        <g
           id="g30563"
           transform="translate(315.5547,470.4749)">
          <path
             d="m 0,0 c 1.022,0 2.351,-0.102 4.09,0.613 1.328,0.563 2.502,1.994 2.502,3.834 0,1.073 -0.766,2.735 -3.271,2.735 -0.459,0 -0.765,0 -1.072,-0.051 L 0,0 Z m -1.994,-6.363 c -0.434,-1.381 -0.153,-1.841 0.563,-1.841 l 1.073,0 c 0.153,0 0.204,-0.102 0.153,-0.204 l -0.051,-0.613 c -0.051,-0.153 -0.153,-0.205 -0.306,-0.205 -0.307,0 -1.432,0.077 -3.629,0.077 -1.789,0 -2.761,-0.077 -3.067,-0.077 -0.154,0 -0.205,0.103 -0.154,0.256 l 0.102,0.562 c 0,0.153 0.052,0.204 0.256,0.204 l 0.664,0 c 0.614,0 1.074,0.563 1.278,1.202 l 4.09,12.753 c 0.255,0.817 0.102,1.277 -0.767,1.277 l -0.869,0 c -0.205,0 -0.256,0.051 -0.205,0.205 L -2.76,7.77 c 0.051,0.153 0.102,0.204 0.357,0.204 2.659,0 5.316,0.076 6.031,0.076 2.198,0 6.032,-0.178 6.032,-3.705 0,-2.504 -2.709,-4.549 -6.032,-4.907 l 0,-0.102 c 0.818,-0.204 1.227,-0.972 1.484,-1.483 0.152,-0.255 1.89,-3.884 2.325,-4.574 0.69,-1.073 1.303,-1.483 2.223,-1.483 l 0.665,0 c 0.154,0 0.204,-0.102 0.154,-0.255 L 10.428,-8.97 c -0.052,-0.153 -0.103,-0.256 -0.257,-0.256 -0.256,0 -0.663,0.077 -2.044,0.077 -1.484,0 -1.942,-0.077 -2.352,-0.077 -0.256,0 -0.357,0.256 -0.714,0.844 -0.358,0.613 -2.607,5.622 -2.914,6.235 -0.614,1.407 -1.738,1.253 -2.428,1.253 l -1.713,-5.469 z"
             style="fill:#0e2b58;fill-opacity:1;fill-rule:nonzero;stroke:none"
             id="path30565"
             inkscape:connector-curvature="0" />
        </g>
        <g
           id="g30567"
           transform="translate(338.6293,473.4654)">
          <path
             d="m 0,0 c -0.051,-0.102 -0.101,-0.154 -0.203,-0.154 l -0.461,0 c -0.206,0 -0.257,0.103 -0.257,0.256 0.154,1.023 -0.152,4.089 -2.759,4.089 -1.483,0 -2.3,-1.379 -2.3,-2.478 0,-1.79 1.124,-2.608 2.3,-3.783 1.176,-1.176 2.862,-2.607 2.862,-5.443 0,-3.271 -2.35,-5.01 -5.008,-5.01 -1.637,0 -2.811,0.971 -3.629,1.891 -0.255,0.256 -0.511,0.205 -0.665,0.051 -0.153,-0.203 -0.409,-0.613 -0.614,-0.971 -0.051,-0.102 -0.102,-0.153 -0.254,-0.102 l -0.307,0.153 c -0.155,0.051 -0.155,0.051 -0.103,0.255 l 1.891,5.572 c 0.052,0.102 0.102,0.102 0.256,0.102 l 0.41,-0.102 c 0.101,-0.051 0.152,-0.102 0.152,-0.255 -0.716,-3.681 1.277,-5.418 2.863,-5.418 1.634,0 2.759,1.277 2.759,2.683 0,1.636 -1.277,2.607 -2.402,3.834 -1.583,1.737 -2.914,3.066 -2.914,5.698 0,1.841 1.432,4.499 4.754,4.499 1.381,0 2.607,-0.87 3.016,-1.176 0.103,-0.051 0.205,-0.102 0.358,-0.102 0.154,0 0.306,0.358 0.409,0.869 0,0.102 0.051,0.102 0.255,0.102 L 0.716,5.009 c 0.154,0 0.205,-0.051 0.205,-0.154 L 0,0 Z"
             style="fill:#0e2b58;fill-opacity:1;fill-rule:nonzero;stroke:none"
             id="path30569"
             inkscape:connector-curvature="0" />
        </g>
        <g
           id="g30571"
           transform="translate(344.8643,475.816)">
          <path
             d="m 0,0 c 0.357,1.278 -0.051,1.687 -0.716,1.687 l -1.176,0 c -0.203,0 -0.255,0.051 -0.255,0.205 l 0.153,0.665 c 0,0.102 0.102,0.152 0.305,0.152 0.308,0 1.689,-0.076 3.733,-0.076 2.198,0 3.272,0.076 3.629,0.076 0.255,0 0.358,-0.101 0.306,-0.306 L 5.826,1.892 C 5.826,1.789 5.775,1.687 5.571,1.687 l -0.666,0 c -1.073,0 -1.661,-0.255 -2.044,-1.712 l -3.168,-11.781 c -0.333,-1.228 0.05,-1.739 1.124,-1.739 l 0.92,0 c 0.153,0 0.204,-0.102 0.153,-0.255 l -0.051,-0.511 c -0.051,-0.205 -0.051,-0.256 -0.307,-0.256 -0.306,0 -1.481,0.077 -4.089,0.077 -2.147,0 -3.475,-0.077 -3.782,-0.077 -0.153,0 -0.204,0.102 -0.204,0.256 l 0.153,0.562 c 0,0.153 0.051,0.204 0.204,0.204 l 0.972,0 c 1.482,0 1.635,0.511 1.993,1.815 L 0,0 Z"
             style="fill:#0e2b58;fill-opacity:1;fill-rule:nonzero;stroke:none"
             id="path30573"
             inkscape:connector-curvature="0" />
        </g>
        <g
           id="g30575"
           transform="translate(363.8766,478.4493)">
          <path
             d="m 0,0 c 2.3,0 3.22,0.204 3.679,0.46 0.103,0.051 0.154,0.102 0.255,0.102 0.104,0 0.206,-0.051 0.206,-0.205 -0.051,-0.408 -0.307,-4.14 -0.256,-5.162 0,-0.153 -0.051,-0.204 -0.205,-0.23 L 3.271,-5.112 c -0.154,0 -0.255,0.103 -0.358,0.409 -0.204,0.818 -0.665,2.403 -1.022,3.067 -0.564,0.435 -2.403,0.664 -3.578,0.664 l -0.511,0 -4.039,-13.034 c -0.51,-1.61 -0.255,-2.172 1.073,-2.172 l 1.022,0 c 0.129,0 0.181,-0.103 0.155,-0.255 l -0.103,-0.511 c -0.025,-0.179 -0.127,-0.256 -0.307,-0.256 -0.357,0 -1.379,0.077 -3.781,0.077 -2.506,0 -3.86,-0.077 -4.116,-0.077 -0.178,0 -0.254,0.102 -0.229,0.256 l 0.051,0.562 c 0.025,0.152 0.102,0.204 0.307,0.204 l 0.664,0 c 1.432,0 1.917,0.664 2.505,2.582 l 3.934,12.624 -0.662,0 c -2.353,0 -3.477,-0.127 -4.064,-0.562 -0.896,-0.664 -2.225,-2.147 -2.838,-2.862 -0.102,-0.103 -0.205,-0.103 -0.306,-0.103 l -0.408,0.256 c -0.103,0.051 -0.103,0.154 -0.052,0.256 0.306,0.562 1.891,4.139 1.942,4.293 0.051,0.154 0.102,0.256 0.256,0.256 0.102,0 0.205,-0.051 0.408,-0.205 C -10.274,0.204 -9.047,0 -6.389,0 L 0,0 Z"
             style="fill:#0e2b58;fill-opacity:1;fill-rule:nonzero;stroke:none"
             id="path30577"
             inkscape:connector-curvature="0" />
        </g>
        <g
           id="g30579"
           transform="translate(375.5776,463.7032)">
          <path
             d="m 0,0 c -0.281,-1.33 0.051,-1.432 0.921,-1.432 l 0.562,0 c 0.153,0 0.204,-0.102 0.204,-0.204 L 1.585,-2.198 c 0,-0.154 -0.05,-0.256 -0.256,-0.256 -0.408,0 -1.227,0.077 -3.271,0.077 -2.3,0 -3.067,-0.077 -3.374,-0.077 -0.153,0 -0.205,0.051 -0.205,0.256 l 0.103,0.562 c 0,0.102 0.051,0.204 0.256,0.204 l 0.562,0 c 1.176,0 1.533,0.562 1.686,1.303 l 0.819,3.783 c 0.101,0.357 0.051,1.022 -0.052,1.329 l -2.656,7.846 C -5.009,13.442 -5.521,13.8 -6.389,13.8 l -0.561,0 c -0.155,0 -0.206,0.051 -0.206,0.205 l 0.103,0.613 c 0.052,0.153 0.103,0.204 0.255,0.204 0.358,0 1.022,-0.076 3.067,-0.076 2.199,0 3.066,0.076 3.373,0.076 0.205,0 0.255,-0.051 0.255,-0.204 l -0.05,-0.613 C -0.205,13.851 -0.255,13.8 -0.408,13.8 l -0.666,0 c -0.817,0 -0.817,-0.614 -0.663,-1.125 L 0.307,5.801 C 0.409,5.392 0.614,5.392 0.818,5.749 c 0.358,0.562 3.987,5.93 4.242,6.697 0.333,0.97 0,1.354 -0.868,1.354 l -0.562,0 c -0.155,0 -0.206,0.102 -0.155,0.256 l 0.052,0.562 c 0,0.153 0.052,0.204 0.307,0.204 0.358,0 1.329,-0.076 2.76,-0.076 1.585,0 2.351,0.076 2.71,0.076 0.203,0 0.254,-0.102 0.254,-0.255 L 9.456,14.056 C 9.456,13.851 9.406,13.8 9.252,13.8 l -0.46,0 C 7.922,13.8 7.412,13.391 6.901,12.701 6.491,12.138 1.84,5.647 1.483,5.034 1.124,4.471 0.87,3.96 0.614,2.836 L 0,0 Z"
             style="fill:#0e2b58;fill-opacity:1;fill-rule:nonzero;stroke:none"
             id="path30581"
             inkscape:connector-curvature="0" />
        </g>
      </g>
    </g>
  </g>
</svg>
