<?xml version="1.0" encoding="UTF-8"?>
<svg xmlns="http://www.w3.org/2000/svg" version="1.1" viewBox="0 0 576 216">
  <defs>
    <style>
      .cls-1 {
        fill: #5f259f;
      }
    </style>
  </defs>
  <!-- Generator: Adobe Illustrator 28.7.1, SVG Export Plug-In . SVG Version: 1.2.0 Build 142)  -->
  <g>
    <g id="Layer_1">
      <g id="Layer_1-2" data-name="Layer_1">
        <g>
          <path class="cls-1" d="M40.1,132.9V40.8h26.9v31.2h25.4v-31.2h26.9v92.1h-26.9v-35.7h-25.4v35.7h-26.9Z"/>
          <path class="cls-1" d="M242.3,40.9"/>
          <path class="cls-1" d="M304,40.8h75.3v24.2h-24.2v67.9h-26.9v-67.9h-24.2v-24.2h0Z"/>
          <path class="cls-1" d="M386.2,132.9V40.8h66.9v21.5h-40v13.2h33.8v21.4h-33.8v14.5h41.6v21.5h-68.5Z"/>
          <path class="cls-1" d="M487.9,62.3h12.6c6.3,0,10.9,3.1,10.9,9.6s-4.5,8.7-12.8,8.7h-10.7v-18.4h0ZM496.2,100.8c12.6,0,14.4,4,14.4,16s.7,14.1,1.4,16.2h27.2v-2.9c-3.2,0-2.8-4.1-2.8-16.1,0-18.5-5.2-20.8-13.9-24.3,9.6-2.9,13.8-11.9,13.8-22.5,0-17.9-9-26.1-36.3-26.1h-38.9v92h26.9v-32.2h8.2Z"/>
          <path class="cls-1" d="M180,40.8v55.6c-.1,9.5-3.1,16.1-12.6,16.1s-12.8-7.8-12.8-16.8v-54.8h0c0,0-27.1,0-27.1,0h0v51.8c-.2,7.8.7,14.1,2.4,19.3,7.3,23.5,28.9,22.7,31.1,22.7s3.6-.2,5.3-.6c.8,0,1.3-.1,1.4-.1,1,0,5.5-.9,12.3-6.3v5.5h26.8V40.8h-26.8Z"/>
          <polygon class="cls-1" points="270.8 40.8 270.8 91 242.6 41.2 242.6 40.8 216.9 40.8 216.9 132.9 242.6 132.9 242.6 83 271.3 132.9 296.5 132.9 296.5 40.8 270.8 40.8"/>
          <g>
            <path class="cls-1" d="M40.2,146.7h21.1l.2,6.3h-.9c-.4-2-1-3.3-1.7-3.9-.7-.6-2.1-.9-4.3-.9h-2v19.1c0,1.4.2,2.3.7,2.7s1.4.6,3,.7v.7h-10.9v-.7c1.6-.1,2.6-.4,3-.8.4-.4.6-1.4.6-3v-18.6h-2.1c-2.1,0-3.5.3-4.2.9-.7.6-1.3,1.9-1.7,3.9h-.9l.2-6.3h0Z"/>
            <path class="cls-1" d="M62.6,170.8c1-.1,1.7-.4,2-.7.3-.4.5-1.2.5-2.5v-17.4c0-.7,0-1.2-.3-1.5-.2-.3-.6-.5-1.3-.5s-.3,0-.4,0h-.4v-.6c.5-.2,1.2-.4,2-.6s1.3-.4,1.6-.5l1.8-.6h0v11.4c.8-.9,1.4-1.5,2-1.9,1.1-.7,2.2-1.1,3.4-1.1,2,0,3.3.8,4,2.5.4.9.6,2,.6,3.4v7.4c0,1.3,0,2.1.4,2.5s.9.6,1.8.8v.5h-7.9v-.5c1.1-.1,1.7-.4,2.1-.7.3-.4.5-1.2.5-2.5v-7.3c0-1.2-.2-2.1-.6-2.8s-1.1-1.1-2.2-1.1-1.9.3-2.8,1-1.3,1.1-1.3,1.3v8.9c0,1.4.2,2.2.5,2.5s1,.6,2,.7v.5h-8.1v-.5h0Z"/>
            <path class="cls-1" d="M93.9,156.1c1.3,1.2,1.9,2.9,1.9,5h-11.6c0,2.8.8,4.9,1.9,6.2s2.5,1.9,4.1,1.9,2.3-.3,3.2-1c.9-.7,1.7-1.6,2.4-2.8l.6.2c-.5,1.5-1.4,3-2.8,4.3s-3,2-5,2-4.1-.9-5.3-2.6c-1.2-1.7-1.9-3.7-1.9-6s.7-4.5,2.2-6.3c1.4-1.8,3.3-2.7,5.7-2.7s3.2.6,4.5,1.8h.1ZM85.2,157.4c-.4.7-.7,1.5-.8,2.5h7.7c0-1.2-.4-2.1-.7-2.7-.6-1.1-1.6-1.6-3-1.6s-2.4.6-3.2,1.8Z"/>
            <path class="cls-1" d="M124.7,146.9c1.4.4,2.2.6,2.4.6.4,0,.7,0,1-.3.3-.2.5-.5.7-.9h.8l.4,8.4h-.9c-.5-1.7-1.1-3-1.9-4-1.5-1.9-3.6-2.9-6.2-2.9s-4.7,1-6.4,3.1c-1.7,2.1-2.5,4.9-2.5,8.5s.9,6,2.6,8,3.9,3,6.6,3,3.7-.5,5.3-1.4c.9-.5,2-1.3,3.1-2.4l.7.7c-.8,1-1.9,2-3.1,2.7-2.1,1.3-4.4,2-6.8,2-4,0-7.2-1.3-9.5-3.8-2.2-2.4-3.3-5.3-3.3-8.9s1.1-6.7,3.4-9.1c2.4-2.6,5.5-3.9,9.4-3.9s2.7.2,4.1.6h0Z"/>
            <path class="cls-1" d="M132.4,170.8c1.3-.1,2.1-.3,2.4-.7.3-.3.5-1.2.5-2.6v-8.6c0-.8,0-1.3-.2-1.7-.2-.5-.6-.8-1.1-.8s-.3,0-.4,0-.5.1-1.1.3v-.6l.8-.3c2.1-.7,3.6-1.2,4.4-1.6.3-.1.6-.2.7-.2v13.3c0,1.4.2,2.2.5,2.6.3.4,1.1.6,2.3.7v.5h-8.8v-.5.2ZM135.2,146.5c.4-.4.8-.6,1.3-.6s1,.2,1.3.6c.4.4.6.8.6,1.4s-.2,1-.6,1.3c-.4.4-.8.6-1.3.6s-1-.2-1.3-.6c-.4-.4-.5-.8-.5-1.3s.2-1,.5-1.3h0Z"/>
            <path class="cls-1" d="M151.4,154.6v1.3h-3.7v10.4c0,.9,0,1.6.2,2.1.3.8.9,1.2,1.7,1.2s.8-.1,1.1-.3.7-.5,1.1-1l.5.4-.4.6c-.6.9-1.3,1.5-2,1.8-.7.4-1.4.5-2,.5-1.4,0-2.4-.6-2.9-1.9-.3-.7-.4-1.6-.4-2.9v-11h-2s-.1,0-.1-.1h0v-.4l.5-.5c.8-.7,1.4-1.3,1.8-1.7.4-.4,1.2-1.6,2.6-3.4h.3v4.8h3.7,0Z"/>
            <path class="cls-1" d="M152.8,154.6h7.7v.5c-.6,0-1.1,0-1.3.2-.6.2-.8.5-.8.9v.5c0,.1.2.4.3.8l4.2,9.1,3.5-9.2s0-.3.2-.7c0-.3.1-.6.1-.7,0-.3-.1-.6-.3-.7-.2-.1-.5-.2-.8-.3h-.6v-.6h5v.5c-.5,0-.9.2-1.1.5-.2.3-.5.7-.6,1.2l-5.7,15.2c-1,2.6-1.9,4.5-2.9,5.7-.9,1.2-2.1,1.8-3.5,1.8s-1.3-.2-1.9-.5c-.6-.3-.9-.9-.9-1.6s.2-.9.5-1.2c.4-.3.8-.5,1.3-.5s.8.1,1.4.3c.6.2,1.1.3,1.3.3.7,0,1.4-.8,2.1-2.5.7-1.6,1.1-2.7,1.1-3.3s0-.2,0-.4,0-.3-.1-.4l-5.7-12.4c-.4-.9-.8-1.5-1.1-1.8s-.8-.5-1.4-.6v-.5.4Z"/>
            <path class="cls-1" d="M191.4,146.7v.7c-1.4,0-2.4.3-2.8.7-.4.4-.6,1.3-.6,2.6v11.9c0,2,.3,3.5.8,4.6,1,2,2.9,3,5.7,3s5.1-1,6.1-3.1c.6-1.1.9-2.9.9-5.3v-9.7c0-2-.2-3.3-.7-3.8s-1.4-.8-2.8-1v-.7h8.7v.7c-1.5.2-2.4.5-2.8,1-.4.5-.7,1.8-.7,3.7v9.7c0,2.6-.4,4.6-1.2,6-1.5,2.7-4.2,4-8.3,4s-6.8-1.3-8.2-3.9c-.8-1.4-1.2-3.3-1.2-5.6v-11.6c0-1.4-.2-2.2-.6-2.6s-1.3-.6-2.7-.7v-.7h10.6-.2Z"/>
            <path class="cls-1" d="M207.9,170.8c.9-.1,1.5-.3,1.8-.6s.5-1,.5-2.1v-9.3c0-.8,0-1.3-.2-1.6-.2-.5-.7-.7-1.4-.7s-.2,0-.3,0h-.4v-.6c.5-.1,1.7-.5,3.5-1.1l1.7-.6h.2v2.9c1.1-1,2-1.7,2.6-2.1.9-.6,1.9-.9,3-.9s1.6.2,2.3.7c1.3.9,2,2.6,2,4.9v8.5c0,.9.2,1.5.5,1.9s.9.6,1.8.6v.5h-7.8v-.5c.9-.1,1.5-.4,1.9-.7.4-.4.5-1.2.5-2.4v-7.8c0-1-.2-1.9-.6-2.6-.4-.7-1.1-1-2.1-1s-1.4.2-2.2.7c-.4.3-.9.7-1.6,1.4v10.2c0,.9.2,1.5.6,1.8s1,.5,1.8.5v.5h-7.9v-.5h-.2Z"/>
            <path class="cls-1" d="M226.6,170.8c1.3-.1,2.1-.3,2.4-.7.3-.3.5-1.2.5-2.6v-8.6c0-.8,0-1.3-.2-1.7-.2-.5-.6-.8-1.1-.8s-.3,0-.4,0-.5.1-1.1.3v-.6l.8-.3c2.1-.7,3.6-1.2,4.4-1.6.3-.1.6-.2.7-.2v13.3c0,1.4.2,2.2.5,2.6.3.4,1.1.6,2.3.7v.5h-8.8v-.5.2ZM229.5,146.5c.4-.4.8-.6,1.3-.6s1,.2,1.3.6c.4.4.6.8.6,1.4s-.2,1-.6,1.3c-.4.4-.8.6-1.3.6s-1-.2-1.3-.6c-.4-.4-.5-.8-.5-1.3s.2-1,.5-1.3h0Z"/>
            <path class="cls-1" d="M244.2,154.4v.6c-.6,0-1.1.2-1.3.3-.3.1-.4.4-.4.8v.6c0,.2.1.4.3.8l3.8,9.2,3.2-8.1c.2-.4.3-.8.4-1.3.1-.4.2-.8.2-1,0-.5-.2-.8-.7-1-.3-.1-.6-.2-1.1-.2v-.6h5.2v.6c-.6,0-1,.2-1.3.6-.3.3-.6,1.1-1.1,2.4l-5.2,13.1c0,.2-.2.4-.2.5,0,0-.1.1-.3.1s-.2,0-.3-.2c0-.1-.2-.3-.3-.5l-5.6-13.3c-.4-1.1-.9-1.8-1.4-2.2-.3-.2-.7-.4-1.3-.4v-.6h7.3v-.2Z"/>
            <path class="cls-1" d="M267.9,156.1c1.3,1.2,1.9,2.9,1.9,5h-11.6c.1,2.8.8,4.9,1.9,6.2s2.5,1.9,4.1,1.9,2.3-.3,3.2-1c.9-.7,1.7-1.6,2.4-2.8l.6.2c-.5,1.5-1.4,3-2.8,4.3s-3,2-5,2-4.1-.9-5.3-2.6-1.9-3.7-1.9-6,.7-4.5,2.2-6.3,3.3-2.7,5.7-2.7,3.2.6,4.5,1.8h0ZM259.2,157.4c-.4.7-.7,1.5-.8,2.5h7.7c-.1-1.2-.4-2.1-.7-2.7-.6-1.1-1.6-1.6-3-1.6s-2.4.6-3.2,1.8Z"/>
            <path class="cls-1" d="M271.6,170.8c1.1,0,1.8-.3,2.2-.6.4-.3.5-.9.5-1.9v-8.2c0-1.2-.1-2.1-.3-2.6-.2-.5-.6-.8-1.2-.8s-.3,0-.5,0-.4,0-.6.1v-.6c.7-.2,1.4-.5,2.1-.7.7-.3,1.2-.4,1.5-.5.6-.2,1.2-.5,1.9-.8h.2v3.4c.8-1.1,1.5-1.9,2.2-2.5s1.5-.9,2.2-.9,1.1.2,1.5.6c.4.4.6.8.6,1.4s-.1.9-.4,1.3c-.3.3-.7.5-1.1.5s-.9-.2-1.4-.6c-.5-.4-.8-.6-1.1-.6s-.9.3-1.6,1-.9,1.4-.9,2.1v8.2c0,1,.2,1.8.7,2.2s1.3.6,2.4.6v.6h-9v-.6h0Z"/>
            <path class="cls-1" d="M285.7,165.6h.6c.3,1.4.7,2.4,1.1,3.2.9,1.4,2.1,2,3.8,2s1.6-.3,2.2-.8c.5-.5.8-1.2.8-2s-.2-1-.5-1.5-.8-.9-1.6-1.4l-2.1-1.2c-1.5-.8-2.6-1.6-3.3-2.4-.7-.8-1-1.8-1-2.9s.5-2.5,1.5-3.3c1-.9,2.2-1.3,3.7-1.3s1.4.1,2.1.4,1.2.4,1.3.4h.5s.2-.2.3-.3h.4v5.1c.1,0-.4,0-.4,0-.2-1.2-.6-2.1-1-2.8-.8-1.2-1.9-1.8-3.3-1.8s-1.5.3-2,.8-.7,1.1-.7,1.8c0,1.1.8,2.1,2.5,3l2.4,1.3c2.6,1.4,3.9,3,3.9,4.9s-.5,2.6-1.6,3.5-2.5,1.4-4.2,1.4-1.6-.1-2.5-.4c-.9-.2-1.5-.4-1.6-.4s-.3,0-.4.2c-.1.1-.2.2-.3.4h-.5v-5.9h0Z"/>
            <path class="cls-1" d="M299.1,170.8c1.3-.1,2.1-.3,2.4-.7.3-.3.5-1.2.5-2.6v-8.6c0-.8,0-1.3-.2-1.7-.2-.5-.6-.8-1.1-.8s-.3,0-.4,0-.5.1-1.1.3v-.6l.8-.3c2.1-.7,3.6-1.2,4.4-1.6.3-.1.6-.2.7-.2v13.3c0,1.4.2,2.2.5,2.6.3.4,1.1.6,2.3.7v.5h-8.8v-.5.2ZM301.9,146.5c.4-.4.8-.6,1.3-.6s1,.2,1.3.6c.4.4.6.8.6,1.4s-.2,1-.6,1.3c-.4.4-.8.6-1.3.6s-1-.2-1.3-.6c-.4-.4-.5-.8-.5-1.3s.2-1,.5-1.3h0Z"/>
            <path class="cls-1" d="M318.1,154.6v1.3h-3.7v10.4c0,.9,0,1.6.2,2.1.3.8.9,1.2,1.7,1.2s.8-.1,1.1-.3c.3-.2.7-.5,1.1-1l.5.4-.4.6c-.6.9-1.3,1.5-2,1.8-.7.4-1.4.5-2,.5-1.4,0-2.4-.6-2.9-1.9-.3-.7-.4-1.6-.4-2.9v-11h-2s-.1,0-.1-.1h0v-.4s.2-.2.5-.5c.8-.7,1.4-1.3,1.8-1.7s1.2-1.6,2.6-3.4h.3v4.8h3.7,0Z"/>
            <path class="cls-1" d="M319.6,154.6h7.7v.5c-.6,0-1.1,0-1.3.2-.6.2-.8.5-.8.9v.5c0,.2.2.4.3.8l4.2,9.1,3.5-9.2s0-.3.2-.7c0-.3.1-.6.1-.7,0-.3-.1-.6-.3-.7s-.5-.2-.8-.3h-.6v-.6h5v.5c-.5,0-.9.2-1.1.5s-.5.7-.6,1.2l-5.7,15.2c-1,2.6-1.9,4.5-2.9,5.7-.9,1.2-2.1,1.8-3.5,1.8s-1.3-.2-1.9-.5-.9-.9-.9-1.6.2-.9.5-1.2c.4-.3.8-.5,1.3-.5s.8.1,1.4.3,1.1.3,1.3.3c.7,0,1.4-.8,2.1-2.5.7-1.6,1.1-2.7,1.1-3.3s0-.2,0-.4,0-.3-.1-.4l-5.7-12.4c-.4-.9-.8-1.5-1.1-1.8-.3-.3-.8-.5-1.4-.6v-.5.4Z"/>
            <path class="cls-1" d="M350.3,156.8c1.5-1.7,3.5-2.5,5.9-2.5s4.4.8,6,2.4c1.6,1.6,2.4,3.7,2.4,6.3s-.8,4.5-2.3,6.3-3.5,2.7-5.9,2.7-4.3-.9-5.9-2.6c-1.6-1.7-2.4-3.9-2.4-6.4s.8-4.5,2.3-6.1h-.1ZM353.2,156.3c-1.2,1.1-1.8,3-1.8,5.7s.5,4.2,1.5,6c1,1.9,2.3,2.8,4.1,2.8s2.4-.6,3.1-1.9c.7-1.2,1.1-2.9,1.1-4.9s-.5-4.1-1.4-5.9c-.9-1.9-2.3-2.8-4.1-2.8s-1.8.3-2.5.9h0Z"/>
            <path class="cls-1" d="M366.3,170.8c1.3,0,2.1-.3,2.5-.7s.6-1.3.6-2.6v-11.7h-3.1v-1.2h3.1c0-1.9.3-3.6.8-4.9,1-2.5,2.8-3.8,5.5-3.8s2,.2,2.9.6c.8.4,1.3,1,1.3,1.7s-.1.8-.4,1.1-.6.5-1.1.5-.7-.1-.9-.3c-.3-.2-.6-.6-.9-1.1l-.3-.5c-.2-.3-.4-.5-.6-.7s-.5-.3-1-.3c-.9,0-1.5.5-1.9,1.4-.2.5-.3,1.1-.3,1.9v4.4h4.5v1.2h-4.5v11.7c0,1.4.2,2.2.6,2.6.4.4,1.3.6,2.9.7v.5h-9.7v-.5h0Z"/>
            <path class="cls-1" d="M387.7,170.7c1.5-.2,2.5-.5,3-1,.4-.5.7-1.8.7-3.8v-16.4l-.5-.6c-.5-.6-1-1-1.4-1.2s-1-.2-1.7-.3v-.7h6.4l14.5,17.9v-12.4c0-2-.3-3.4-.9-4s-1.3-.7-2.6-.8v-.7h8.7v.7c-1.4.1-2.4.5-2.8,1-.5.5-.7,1.8-.7,3.8v19.6h-.6l-16.6-20.4v14.5c0,2,.3,3.4.9,4s1.3.7,2.6.8v.7h-8.8v-.7h-.2Z"/>
            <path class="cls-1" d="M427.4,156.1c1.3,1.2,1.9,2.9,1.9,5h-11.6c.1,2.8.8,4.9,1.9,6.2s2.5,1.9,4.1,1.9,2.3-.3,3.2-1c.9-.7,1.7-1.6,2.4-2.8l.6.2c-.5,1.5-1.4,3-2.8,4.3s-3,2-5,2-4.1-.9-5.3-2.6c-1.2-1.7-1.9-3.7-1.9-6s.7-4.5,2.2-6.3c1.4-1.8,3.3-2.7,5.7-2.7s3.2.6,4.5,1.8h0ZM418.6,157.4c-.4.7-.7,1.5-.8,2.5h7.7c-.1-1.2-.4-2.1-.7-2.7-.6-1.1-1.6-1.6-3-1.6s-2.4.6-3.2,1.8Z"/>
            <path class="cls-1" d="M448.2,155c-.7,0-1.3.2-1.6.4-.4.2-.5.5-.5,1s0,.5.1.8c0,.3.2.6.3,1l3.3,8.6,3.2-7.9c.1-.3.3-.8.5-1.3.2-.6.3-1,.3-1.2,0-.4-.1-.8-.4-.9-.3-.2-.7-.3-1.2-.3v-.5h4.6v.5c-.3,0-.6.2-.7.4-.2.2-.5.8-.8,1.6l-5.8,14.3c0,.1,0,.2-.1.2h-.2c-.1,0-.2-.1-.3-.2l-4.5-11-4.4,10.9s0,.1-.1.2h-.2c-.1,0-.2-.1-.3-.2l-5.4-13.4c-.6-1.5-1-2.4-1.2-2.6-.2-.3-.6-.4-1.1-.5v-.5h6.8v.5c-.6,0-1,.2-1.3.3-.3.2-.4.5-.4,1s.2,1.2.7,2.6c.3.8.7,1.7,1.1,2.8l2.1,5.1,3.2-6.9v-.2c0-.2,0-.7-.4-1.4-.3-.7-.5-1.3-.8-1.8-.2-.6-.5-.9-.8-1.2s-.7-.4-1.3-.4v-.5h7.6v.7Z"/>
            <path class="cls-1" d="M478.3,146.7v.7c-.9,0-1.5,0-2,.2-.4.2-.7.5-.7,1s0,.4.1.6c0,.2.2.5.5.9l5.5,8.1,5.4-8.2c.2-.4.4-.6.4-.9v-.5c0-.5-.3-.9-.9-1.1-.3-.1-.9-.2-1.7-.2v-.7h8.1v.7c-.7,0-1.4.3-2,.7-.9.6-2,1.8-3.1,3.6l-5.5,8.4v7.3c0,1.4.2,2.3.7,2.7s1.5.6,3.1.7v.7h-11.4v-.7c1.7,0,2.7-.3,3.1-.8.4-.4.6-1.4.6-3v-6.5l-4.9-7.2c-1.7-2.5-2.9-4-3.5-4.7-.7-.7-1.5-1.1-2.5-1.1v-.7h10.7Z"/>
            <path class="cls-1" d="M493.5,156.8c1.5-1.7,3.5-2.5,5.9-2.5s4.4.8,6,2.4c1.6,1.6,2.4,3.7,2.4,6.3s-.8,4.5-2.3,6.3-3.5,2.7-5.9,2.7-4.3-.9-5.9-2.6c-1.6-1.7-2.4-3.9-2.4-6.4s.8-4.5,2.3-6.1h-.1ZM496.5,156.3c-1.2,1.1-1.8,3-1.8,5.7s.5,4.2,1.5,6c1,1.9,2.3,2.8,4.1,2.8s2.4-.6,3.1-1.9c.7-1.2,1.1-2.9,1.1-4.9s-.5-4.1-1.4-5.9c-.9-1.9-2.3-2.8-4.1-2.8s-1.8.3-2.5.9h0Z"/>
            <path class="cls-1" d="M509.1,170.8c1.1,0,1.8-.3,2.2-.6.4-.3.5-.9.5-1.9v-8.2c0-1.2-.1-2.1-.3-2.6-.2-.5-.6-.8-1.2-.8s-.3,0-.5,0-.4,0-.6.1v-.6c.7-.2,1.4-.5,2.1-.7.7-.3,1.2-.4,1.5-.5.6-.2,1.2-.5,1.9-.8h.2v3.4c.8-1.1,1.5-1.9,2.2-2.5s1.5-.9,2.2-.9,1.1.2,1.5.6c.4.4.6.8.6,1.4s0,.9-.4,1.3c-.3.3-.7.5-1.1.5s-.9-.2-1.4-.6c-.5-.4-.8-.6-1.1-.6s-.9.3-1.6,1-.9,1.4-.9,2.1v8.2c0,1,.2,1.8.7,2.2s1.3.6,2.4.6v.6h-9v-.6h0Z"/>
            <path class="cls-1" d="M521.4,170.8c1.2,0,1.9-.3,2.3-.6.4-.3.6-1,.6-2v-18.2c0-.9,0-1.4-.4-1.6-.3-.2-.7-.3-1.3-.3h-1.2v-.5l1.6-.4c1.3-.3,2.3-.6,3.2-.9.5-.2.8-.3.9-.3s0,0,0,0v15.5l5-4.4c.4-.3.6-.6.7-.8,0-.2.2-.4.2-.5,0-.3,0-.5-.4-.5s-.8-.1-1.5-.2v-.5h7.6v.5c-1.4,0-2.4.4-3.3.8-.8.5-2.4,1.8-4.7,3.9l-1.1,1,3.3,4.4c1.7,2.2,3,3.7,3.9,4.4s1.8,1.1,2.8,1.2v.5h-8.1v-.5h.6c.2,0,.4,0,.6-.2.2,0,.3-.2.3-.4v-.4c0-.1,0-.3-.3-.4l-5.7-7.4v6.8c0,.8.3,1.4.9,1.7.4.2,1,.3,1.9.3v.5h-8.7v-.5h.2Z"/>
          </g>
        </g>
      </g>
    </g>
  </g>
</svg>