<svg xmlns="http://www.w3.org/2000/svg" height="800" width="1200" viewBox="-12.55794 -4.925225 108.83548 29.55135"><defs><clipPath clipPathUnits="userSpaceOnUse" id="a"><path d="M520.075 500.711h237.316v55.846H520.075z"/></clipPath><clipPath clipPathUnits="userSpaceOnUse" id="b"><path d="M506.637 468.77h276.669v108.402H506.637z"/></clipPath></defs><g clip-path="url(#a)" transform="matrix(.35278 0 0 -.35278 -183.4709 196.3407)"><path d="M587.7338 543.6895c-.298 4.03-1.553 2.806-4.626 4.03-2.478.478-2.687 2.269-.239 2.358 4.418-.327 6.626-.387 10.298.18 1.672-.269 2.388-.956 3.014-2.567 3.076-6.508 7.552-16.269 10.628-22.776.536-1.165.835-1.403 1.522.09l9.074 23.193c1.015 1.97 2.119 2.447 5.284 2.148 5.462-.088 6.805.062 9.492.359 2.328-.09 2.179-1.88-.119-2.507-3.523-.03-5.374-1.223-5.911-3.85l.508-26.628c.567-3.969 2.627-4.089 6.328-5.045 1.671-.746 1.313-1.91-.12-2.299-7.731.896-10.418.838-18.089.09-2.209-.209-2.358 1.702.03 2.209 2.836.627 3.553 1.136 4.179 2.628l-.567 25.671c-.089 1.015-.717 1.015-1.105-.18l-10.835-27.073c-1.015-2.299-1.463-2.299-2.567-.509l-12.805 27.732c-.389.956-.866.656-.926.06l.12-24.477c.357-2.836 2.328-3.016 6.327-4.269 1.135-.359 1.195-1.313.269-1.91-7.821.657-9.074.657-16.328-.269-1.134 0-1.671 1.672.09 1.91 3.851 1.103 4.895 1.163 5.462 3.374zm44.059-19.641c1.163 11.701 10.866 14.448 15.849 14.478 5.912-.18 7.792-2.12 7.85-4.09.06-1.971-1.341-3.015-2.864-2.596-3.253.834-2.627 4.269-6.954 4.536-4.897-.716-7.852-6.209-7.015-12.775.834-6.568 7.193-11.464 14.955-7.464 1.878.419 2.029-1.134.507-2.208-14.268-8.777-22.925 3.731-22.328 10.119m26.834 7.223c1.314 14.06 10.33 19.942 23.014 20.986 13.374-.09 15.284-.986 15.105-8.448.088-2.687-1.701-3.313-2.955-.268-1.434 2.745-2.629 4.327-6.029 5.73-11.524 2.597-20.058-4.806-20.567-17.402-.806-17.762 19.074-22.955 23.193-16.329.866 1.731.866 6.329.746 10.119-.715 2.507-3.105 2.269-5.432 2.361-2.508-.18-3.403 2.656-.03 2.626 3.254 0 9.523-.299 17.582.446 2.388-.09 2.568-2.268-.358-2.597-1.253-.238-3.912-.208-4.269-2.297-.3-10.806 2.208-11.851-5.941-14.807-10.387-2.447-21.581-1.313-27.91 4.806-2.834 2.507-6.388 8.268-6.149 15.074m51.79-3.044c-.148 1.611-.356 2.865-2.208 3.403-1.312.12-1.942 1.313-.06 2.03 3.761 1.224 4.299 1.433 7.194 3.762.896.475 1.939.09 1.433-1.523-.209-1.223-.178-1.792-.269-3.105l.031-16.478c.148-2.686 2.237-3.135 3.58-3.67 1.343-.539 1.462-2.121-.119-2.151-5.851.808-7.134.896-12.774-.239-1.883-.029-2.301 1.402.027 2.24 2.331.835 3.107 1.224 3.224 3.224zm16.925-12.447c-.149-1.493-.835-2.479-3.641-3.254-2.209-.718-1.94-1.882.298-1.971 6.03.866 7.912.716 13.315.119 2.118.03 1.759 1.403.445 2.03-3.162 1.225-3.671 1.255-4.297 4.387l-.24 31.643c0 1.821.688 3.942-1.253 3.463-3.612-1.433-3.91-1.553-7.194-2.686-1.731-.747-1.074-1.583.179-2 1.76-.717 1.91-1.792 2-3.076zm18.567-.18c-.15-1.493-.836-2.479-3.641-3.253-2.21-.717-1.941-1.882.299-1.972 6.03.866 7.909.718 13.312.12 2.119.03 1.762 1.403.448 2.031-3.165 1.224-3.672 1.254-4.298 4.387l-.239 31.643c0 1.821.686 3.94-1.254 3.461-3.612-1.432-3.91-1.552-7.194-2.686-1.731-.746-1.074-1.582.179-2 1.762-.716 1.911-1.79 2-3.073zm-32.268 36.118c1.85 0 3.403-1.521 3.403-3.401 0-1.882-1.553-3.434-3.403-3.434s-3.372 1.552-3.372 3.434c0 1.88 1.522 3.401 3.372 3.401m-192.39-20.8393c-2.011 7.158-.834 13.781-.834 21.794 7.164 3.56 14.258 3.883 21.945 3.883 6.648 0 16.075-.858 21.753-3.873.582-7.552.917-14.2-1.023-22.781-1.938-8.582-7.581-20.434-20.447-29.192-14.041 9.203-18.631 20.328-21.394 30.169" fill="#ed1b2f" fill-rule="evenodd"/></g><g clip-path="url(#b)" transform="matrix(.35278 0 0 -.35278 -183.4709 196.3407)" fill-rule="evenodd"><path d="M527.9601 541.3754l-6.917-7.522c1.551-7.213 5.859-22.327 21.552-32.526 15.551 10.704 19.719 25.373 20.659 32.69l-6.724 7.376-7.446-7.545-6.859 7.48-6.835-7.387-7.43 7.434m-2.0222 5.815l-.528-.751 1.182.113zm1.967.833l.851-1.448h-1.665zm-2.523-2.665c.218 0 .396-.176.396-.402 0-.216-.178-.396-.396-.396-.217 0-.392.18-.392.396 0 .226.175.402.392.402m1.256.259a.413.413 0 00.413-.412c0-.239-.184-.414-.413-.414-.205 0-.404.175-.404.414 0 .226.199.412.404.412m1.273.07c.221 0 .408-.183.408-.409 0-.226-.187-.412-.408-.412-.214 0-.407.186-.407.412 0 .226.193.409.407.409m.005-2.277c-1.566-.004-2.733.149-2.733.344 0 .194 1.158.39 2.733.394 1.576.001 2.733-.196 2.733-.389s-1.167-.346-2.733-.349m2.569 1.948c-.216 0-.397-.176-.397-.402 0-.216.181-.396.397-.396.215 0 .391.18.391.396 0 .226-.176.402-.391.402m-1.255.259c-.232 0-.419-.186-.419-.412 0-.239.187-.414.419-.414.209 0 .402.175.402.414 0 .226-.193.412-.402.412m.7 1.573l.526-.751-1.182.113zm-2.015-2.716c.816.003 2.093-.08 2.863-.321.189.4.524 1.07.706 1.341-.659.393-2.682.511-3.567.507-.885-.001-2.909-.119-3.567-.513.181-.27.518-.941.702-1.34.771.241 2.047.324 2.863.326m0 1.881c1.12.004 3.252-.166 3.757-.532.177.283 1.469 2.703 1.593 3.397-.465.176-.894-.436-1.081-.482-.33.51-.654.51-.812.487-.277-.082-.129-.176-.018-.211 1.74-1.47-.835-2.928-1.282-1.452-2.214-.183-1.639 1.599-1.069 1.822.376.112.071.17-.047.211-.141.029-.416.049-.452-.069.036.876-.071 1.552-.594 1.845-.525-.294-.62-.976-.583-1.852-.037.118-.309.101-.451.071-.116-.041-.422-.099-.049-.212.573-.223 1.147-2.005-1.068-1.822-.447-1.475-3.019-.017-1.283 1.453.113.033.263.129-.012.212-.166.022-.482.022-.815-.488-.189.046-.618.658-1.084.482.129-.695 1.421-3.114 1.593-3.396.507.365 2.637.535 3.757.536m26.6281.835l-.53-.751 1.182.113zm1.965.833l.853-1.448h-1.667zm-2.522-2.665c.217 0 .395-.176.395-.402 0-.216-.178-.396-.395-.396-.217 0-.392.18-.392.396 0 .226.175.402.392.402m1.256.259a.413.413 0 00.413-.412c0-.239-.184-.414-.413-.414-.206 0-.404.175-.404.414 0 .226.198.412.404.412m1.273.07c.221 0 .408-.183.408-.409 0-.226-.187-.412-.408-.412-.215 0-.407.186-.407.412 0 .226.192.409.407.409m.006-2.277c-1.567-.004-2.734.149-2.734.344 0 .194 1.158.39 2.734.394 1.574.001 2.731-.196 2.731-.389s-1.166-.346-2.731-.349m2.568 1.948c-.215 0-.397-.176-.397-.402 0-.216.182-.396.397-.396.214 0 .39.18.39.396 0 .226-.176.402-.39.402m-1.255.259c-.233 0-.42-.186-.42-.412 0-.239.187-.414.42-.414.209 0 .401.175.401.414 0 .226-.192.412-.401.412m.7 1.573l.526-.751-1.182.113zm-2.016-2.716c.816.003 2.094-.08 2.864-.321.188.4.523 1.07.706 1.341-.659.393-2.682.511-3.567.507-.886-.001-2.909-.119-3.567-.513.18-.27.518-.941.702-1.34.771.241 2.047.324 2.862.326m.001 1.881c1.119.004 3.25-.166 3.758-.532.176.283 1.468 2.703 1.591 3.397-.464.176-.893-.436-1.082-.482-.328.51-.652.51-.81.487-.277-.082-.129-.176-.018-.211 1.74-1.47-.834-2.928-1.281-1.452-2.216-.183-1.639 1.599-1.069 1.822.375.112.069.17-.048.211-.141.029-.417.049-.453-.069.036.876-.069 1.552-.593 1.845-.525-.294-.62-.976-.584-1.852-.036.118-.309.101-.451.071-.115-.041-.421-.099-.048-.212.573-.223 1.145-2.005-1.068-1.822-.448-1.475-3.019-.017-1.284 1.453.114.033.265.129-.012.212-.165.022-.48.022-.815-.488-.188.046-.617.658-1.083.482.128-.695 1.422-3.114 1.593-3.396.508.365 2.637.535 3.757.536" fill="#fff"/><path d="M528.7239 530.816c.129 0 .234-.103.234-.233 0-.128-.105-.232-.234-.232-.128 0-.234.104-.234.232 0 .13.106.233.234.233m-1.675-3.358c.106.229.353.936.458 1.164-.105.247-.352.477-.564.477.106.229.506.53.429.735-.076.206-.259.187-.67.4.147.293.447.446.665.487.217.042.222.364.605.57.382.207.73.26 1.286.23.558-.03 2.393-.535 1.916-2.652 1.058-2.116 4.726.707 6.032.707-.247-.477-.6-.954-.829-1.411.353-.248.829 0 1.181 0-.352-1.164-1.057-1.641-1.658-2.117.601-1.885 2.775-1.157 4.726-.934-.241-.647-1.058-.705-1.411-1.18.664-.702 1.411-1.641 1.887-2.593-.876.581-2.716 1.18-3.315 1.409-1.181.479-3.544.479-4.726 0 .247-.457.706-.705 1.077-.934-.601-1.18-1.782-.475-2.487-.246-.6-.459-1.704-.494-2.01-.229 0 0 0 .294.352.551.241.336-.705.401-.951.858.005.436.458.007.722.479-.599 1.18-3.067 1.41-2.715 4.229m18.3369 3.019c.132 0 .239-.11.239-.239a.24.24 0 00-.239-.241.24.24 0 00-.239.241c0 .129.107.239.239.239m-1.643-3.358c.106.229.353.933.459 1.162-.106.248-.353.477-.565.477.106.229.506.529.429.735-.076.206-.258.188-.67.399.147.294.447.447.664.488.218.04.224.365.605.569.383.206.73.259 1.287.229.558-.029 2.393-.535 1.917-2.649 1.058-2.117 4.725.704 6.03.704-.247-.475-.599-.952-.829-1.409.354-.248.829 0 1.182 0-.353-1.164-1.058-1.641-1.658-2.116.6-1.887 2.775-1.159 4.725-.936-.241-.645-1.057-.705-1.409-1.18.663-.7 1.409-1.64 1.886-2.592-.876.582-2.716 1.182-3.315 1.411-1.181.476-3.544.476-4.725 0 .246-.459.704-.706 1.075-.934-.6-1.182-1.781-.477-2.486-.248-.6-.459-1.705-.494-2.01-.229 0 0 0 .294.353.553.241.333-.706.399-.953.858.006.434.459.005.723.476-.599 1.18-3.068 1.409-2.715 4.232m-6.3355-8.4615c.121 0 .219-.1.219-.219 0-.12-.098-.22-.219-.22s-.219.1-.219.22c0 .119.098.219.219.219m-1.661-3.358c.107.229.354.934.459 1.164-.105.247-.352.475-.564.475.105.23.505.529.429.735-.077.206-.259.189-.67.401.147.294.446.447.664.487.218.041.223.364.605.571.382.205.73.258 1.287.23.557-.03 2.393-.535 1.916-2.652 1.059-2.116 4.726.705 6.031.705-.246-.477-.6-.952-.829-1.411.353-.246.829 0 1.182 0-.353-1.164-1.058-1.639-1.658-2.115.6-1.888 2.774-1.158 4.726-.936-.242-.646-1.058-.704-1.411-1.181.664-.699 1.411-1.64 1.886-2.592-.875.582-2.715 1.182-3.315 1.411-1.181.476-3.544.476-4.726 0 .248-.459.706-.705 1.077-.934-.6-1.182-1.782-.477-2.486-.248-.601-.458-1.705-.493-2.01-.229 0 0 0 .294.352.553.241.336-.705.399-.952.858.006.436.459.007.723.476-.599 1.182-3.068 1.411-2.716 4.232" fill="#ed1b2f"/><path d="M537.4771 553.4891s1.041-.434 1.987-.023c1.029.447 1.956.6 2.698.271v-9.04c-.641.306-1.347.188-2.345-.053-1-.241-1.588-.23-2.328-.107zm-.306-.076l-.781-.74v-8.964l.781.735zm-.547-9.887l.823.725c.612-.249 1.933.028 2.563.147 1.052.199 1.482.329 2.174.016-.376-.218-.611-.522-.593-.894zm11.48.007l-.823.722c-.612-.246-1.934.029-2.563.148-1.052.201-1.481.329-2.175.018.377-.218.612-.524.594-.895zm-.6 9.951l.782-.741v-8.964l-.782.735zm-.306.005s-1.028-.434-1.974-.023c-1.029.447-1.958.6-2.698.271v-9.04c.64.306 1.345.188 2.345-.053.998-.241 1.587-.23 2.327-.107zm-4.849-9.268c-.335-.301-.463-.412-.388-.711h.842c.04.329-.084.457-.454.711" fill="#fff"/><path d="M540.4162 546.9061c0-.218.076-.434.335-.434.205 0 .317.163.317.382 0 .128-.024.393-.317.393-.13 0-.306-.047-.335-.341m-.241-.088c-.024.329.182.675.576.658.305 0 .588-.211.558-.635-.012-.269-.153-.582-.57-.593-.424.011-.552.354-.564.57m-1.223-.658v1.181h.241l.488-.799v.799h.241v-1.181h-.241l-.476.799v-.799zm-.529 1.034h.253v-1.18h-.253zm1.969 1.664v1.182h.359l.218-.895.217.895h.352v-1.182h-.241v.941l-.205-.941h-.254l-.205.941v-.941zm-1.122.581c0-.217.076-.433.335-.433.205 0 .317.163.317.38 0 .13-.024.394-.317.394-.13 0-.306-.046-.335-.341m-.242-.088c-.022.329.183.675.577.659.306 0 .587-.211.558-.635-.012-.27-.153-.582-.571-.594-.423.012-.552.353-.564.57m-.899-.57h.241c.323 0 .347.77-.011.77h-.23zm.335-.201h-.576v1.184h.558c.629-.077.5-1.124.018-1.184m.877 2.64v1.182h.24l.488-.8v.8h.241v-1.182h-.241l-.477.801v-.801zm-.524 1.04h.253v-1.18h-.253zm6.277-5.565c0-.218.076-.436.335-.436.205 0 .318.167.318.383 0 .129-.024.394-.318.394-.129 0-.306-.049-.335-.341m-.241-.088c-.023.329.182.676.576.658.306 0 .587-.211.559-.635-.012-.271-.154-.582-.571-.593-.423.011-.552.352-.564.57m-.975-.165h.24c.324 0 .347.77-.011.77h-.229zm.335-.199h-.577v1.18h.559c.629-.077.499-1.122.018-1.18m.893 3.521h.253v-1.184h-.253zm-1.118-1.054v1.183h.836v-.213h-.588v-.269h.522v-.206h-.522v-.495zm1.529 2.241v1.18h.241l.488-.798v.798h.241v-1.18h-.241l-.476.797v-.797zm-1.146.758c0-.218.076-.436.336-.436.205 0 .316.166.316.382 0 .13-.023.394-.316.394-.131 0-.306-.048-.336-.34m-.241-.089c-.023.328.182.677.577.659.305 0 .586-.211.557-.637-.011-.269-.153-.582-.57-.592-.423.01-.552.353-.564.57m-1.157.2c.011.371.217.582.552.582.294 0 .482-.165.493-.429h-.241c0 .088-.065.218-.241.218-.181 0-.323-.17-.323-.424 0-.181.106-.383.294-.383.129 0 .259.049.27.23h.241c.03-.205-.199-.452-.493-.452-.312 0-.565.222-.552.658" fill="#ed1b2f"/></g></svg>