<?xml version="1.0" encoding="UTF-8" standalone="no"?>
<svg xmlns:rdf="http://www.w3.org/1999/02/22-rdf-syntax-ns#" xmlns="http://www.w3.org/2000/svg" xml:space="preserve" height="58.477" viewBox="0 0 192.91022 58.477428" width="192.91" version="1.1" xmlns:cc="http://creativecommons.org/ns#" xmlns:dc="http://purl.org/dc/elements/1.1/"><g transform="matrix(1.25 0 0 -1.25 -286.37 524.56)"><g><path d="m1.0762 11.918v31.594h40.986v-31.594h-40.986z" transform="matrix(.8 0 0 -.8 229.09 419.65)" fill="#77b5e6"/><path d="m0.96875 1.0312v9.2848h40.988v-9.2848h-40.988zm50.029 0.7989c-0.056 0-0.112 0.0209-0.156 0.0547-0.079 0.436-0.134 1.1318-0.369 1.9043 0.067 0.1455 0.279 0.1684 0.414 0.1015 0.336-0.8174 0.571-1.2656 1.388-1.2656h0.694c0.268 0 0.269 0.055 0.269 0.3242v4.9375c0 1.0413-0.066 1.1205-0.57 1.1992l-0.504 0.0547c-0.09 0.0673-0.09 0.325 0 0.3926 0.784-0.0226 1.365-0.0332 1.902-0.0332 0.504 0 1.066 0.0107 1.793 0.0332 0.079-0.0676 0.079-0.3254 0-0.3926l-0.449-0.0547c-0.503-0.0787-0.57-0.1579-0.57-1.1992v-4.9375c0-0.2911 0.034-0.3242 0.303-0.3242h0.671c0.84 0 0.996 0.5255 1.186 1.2422 0.056 0.0895 0.358 0.0674 0.414-0.0332-0.022-0.6384 0.058-1.5448 0.17-1.9258-0.023-0.0334-0.103-0.0781-0.17-0.0781s-0.1 0.0111-0.144 0.0332c-0.101 0.2351-0.269 0.2461-1.008 0.2461h-4.166c-0.851 0-0.884-0.0443-0.94-0.2344-0.045-0.0338-0.102-0.0449-0.158-0.0449zm100.5 0c-0.06 0-0.11 0.0209-0.16 0.0547-0.08 0.436-0.13 1.1318-0.37 1.9043 0.07 0.1455 0.28 0.1684 0.42 0.1015 0.33-0.8174 0.57-1.2656 1.39-1.2656h0.69c0.27 0 0.27 0.055 0.27 0.3242v4.9375c0 1.0413-0.07 1.1205-0.57 1.1992l-0.51 0.0547c-0.09 0.0673-0.09 0.325 0 0.3926 0.79-0.0226 1.37-0.0332 1.91-0.0332 0.5 0 1.06 0.0107 1.79 0.0332 0.08-0.0676 0.08-0.3254 0-0.3926l-0.45-0.0547c-0.5-0.0787-0.57-0.1579-0.57-1.1992v-4.9375c0-0.2911 0.03-0.3242 0.3-0.3242h0.67c0.84 0 1 0.5255 1.19 1.2422 0.06 0.0895 0.36 0.0674 0.41-0.0332-0.02-0.6384 0.06-1.5448 0.17-1.9258-0.02-0.0334-0.1-0.0781-0.17-0.0781-0.06 0-0.1 0.0111-0.14 0.0332-0.1 0.2351-0.27 0.2461-1.01 0.2461h-4.16c-0.86 0-0.89-0.0443-0.95-0.2344-0.04-0.0338-0.1-0.0449-0.15-0.0449zm-11.01 0.0996c-1.63 0-2.6 0.8731-2.6 2.1387 0.01 1.1085 0.89 1.7803 1.69 2.1836 0.67 0.3357 1.52 0.874 1.52 1.7812 0 0.56-0.38 1.1309-1.21 1.1309-0.95 0-1.7-1.0296-1.92-1.7579-0.09-0.1232-0.35-0.1122-0.43 0.0333 0 0.7616 0.15 1.5678 0.36 1.8144 0.24 0.1344 0.88 0.4258 1.91 0.4258 1.69 0 2.82-0.8961 2.82-2.2735 0-1.2314-0.89-1.8804-1.58-2.25l-0.74-0.3925c-0.56-0.2908-1.02-0.7623-1.02-1.2774 0-0.5596 0.4-1.041 1.14-1.041 0.81 0 1.29 0.8172 1.48 1.3887 0.1 0.1117 0.38 0.1012 0.44-0.0332 0-0.7502-0.11-1.3554-0.2-1.6016-0.14-0.0222-0.24-0.0448-0.38-0.0898-0.45-0.1344-0.91-0.1797-1.28-0.1797zm37.29 0c-2.34 0-4 1.7146-4 3.9316 0 2.3407 1.64 3.8184 3.89 3.8184 2.41 0 4.04-1.4673 4.04-3.9082 0-2.2731-1.6-3.8418-3.93-3.8418zm-117.84 0.1465c-0.089 0.0676-0.089 0.3253 0 0.3926l0.27 0.0332c0.503 0.101 0.57 0.179 0.57 1.2207v4.164c0 1.0413-0.067 1.1201-0.57 1.2207l-0.27 0.0332c-0.089 0.0673-0.089 0.325 0 0.3926 0.571-0.0226 1.131-0.0332 1.668-0.0332 0.504 0 1.065 0.0107 1.703 0.0332 0.09-0.0676 0.09-0.3254 0-0.3926l-0.357-0.0429c-0.504-0.0899-0.572-0.1697-0.572-1.211v-1.6113c0-0.3138 0.011-0.3242 0.47-0.3242h2.329c0.47 0 0.47 0.0109 0.47 0.3242v1.6113c0 1.0413-0.055 1.1201-0.57 1.2207l-0.246 0.0332c-0.09 0.0673-0.09 0.325 0 0.3926 0.537-0.0226 1.084-0.0332 1.644-0.0332 0.515 0 1.065 0.0107 1.625 0.0332 0.09-0.0676 0.09-0.3254 0-0.3926l-0.269-0.0429c-0.515-0.0899-0.582-0.1697-0.582-1.211v-4.164c0-1.0417 0.067-1.1197 0.582-1.2207l0.224-0.0352c0.09-0.0673 0.09-0.323 0-0.3906-0.515 0.0226-1.031 0.0332-1.58 0.0332-0.537 0-1.085-0.0107-1.701-0.0332-0.09 0.0676-0.09 0.3234 0 0.3906l0.303 0.0469c0.515 0.0895 0.57 0.1673 0.57 1.209v1.2988c0 0.3245 0 0.3359-0.47 0.3359h-2.329c-0.459 0-0.47-0.0111-0.47-0.3359v-1.2988c0-1.0417 0.067-1.1197 0.549-1.2207l0.234-0.0332c0.09-0.0673 0.09-0.325 0-0.3926-0.493 0.0226-1.053 0.0332-1.557 0.0332-0.537 0-1.119-0.0107-1.668-0.0332zm10.957 0c-0.111 0.0676-0.124 0.3253-0.023 0.3926l0.281 0.0546c0.504 0.0895 0.57 0.1685 0.57 1.1875v4.1758c0 1.0301-0.066 1.109-0.57 1.1758l-0.525 0.0781c-0.09 0.0562-0.09 0.325 0 0.3926 0.839-0.0226 1.388-0.0332 1.926-0.0332h1.455c0.918 0 1.992 0.0107 2.586 0.0332 0.156-0.3027 0.425-1.2087 0.47-1.791-0.045-0.1344-0.324-0.18-0.414-0.0567-0.616 1.2653-0.996 1.2989-1.97 1.2989-0.818 0-1.031-0.0894-1.176-0.291-0.135-0.1906-0.18-0.549-0.18-1.0645v-1.332c0-0.3361 0.013-0.3457 0.314-0.3457h0.772c0.582 0 0.705 0.0892 0.828 0.6269l0.057 0.2793c0.078 0.101 0.358 0.0891 0.414-0.0117-0.022-0.358-0.033-0.7604-0.033-1.1855 0-0.4256 0.01-0.8292 0.033-1.1875-0.056-0.101-0.336-0.1015-0.414-0.0118l-0.057 0.2813c-0.123 0.5373-0.246 0.6152-0.828 0.6152h-0.772c-0.302 0-0.314-0.0225-0.314-0.3359v-1.959-0.002c0-0.414 0-0.4355 0.369-0.4355h0.897c0.548 0 0.884 0.1349 1.097 0.3477 0.146 0.157 0.303 0.4906 0.426 0.8828 0.112 0.1006 0.369 0.0783 0.414-0.045-0.056-0.7501-0.135-1.555-0.146-1.7343-0.146 0.0226-0.784 0.0332-1.5 0.0332h-2.373c-0.538 0-1.087-0.0107-1.614-0.0332zm13.268 0c-0.123 0.0676-0.111 0.3136-0.022 0.3808l0.28 0.0567c0.504 0.0895 0.572 0.1673 0.572 1.209v2.7988c0 1.2206 0.246 2.0496 0.828 2.5312 0.605 0.4928 1.366 0.627 2.217 0.627 0.907 0 1.724-0.2801 2.217-0.8067 0.616-0.6833 0.717-1.6467 0.717-2.6992v-1.2539c0-0.9065 0.045-1.758 0.167-2.0488 0.101-0.2354 0.315-0.3019 0.606-0.3691l0.201-0.045c0.09-0.0895 0.067-0.3132 0-0.3808-0.425 0.0226-0.84 0.0332-1.254 0.0332-0.459 0-0.895-0.0107-1.5-0.0332-0.067 0.0676-0.09 0.2913 0 0.3808l0.301 0.0567c0.302 0.0556 0.549 0.1219 0.65 0.3574 0.123 0.2908 0.168 1.1423 0.168 2.0488v1.3555c0 1.5337-0.437 2.7871-1.871 2.7871-1.702 0-1.847-1.4438-1.847-2.7539v-2.5859c0-1.0417 0.068-1.1197 0.572-1.2207l0.267-0.045c0.09-0.0672 0.09-0.3132 0-0.3808-0.537 0.0226-1.085 0.0332-1.634 0.0332-0.538 0-1.098-0.0107-1.635-0.0332zm10.059 0c-0.112 0.0337-0.124 0.3027-0.045 0.3926l0.312 0.0449c0.392 0.0783 0.56 0.1884 0.639 0.3789 0.078 0.1567 0.078 0.3374 0.078 0.9531v2.8438c0 0.9072-0.045 1.7465-0.156 2.0488-0.101 0.235-0.313 0.3023-0.616 0.3691l-0.191 0.0332c-0.09 0.0895-0.067 0.325 0 0.3926 0.426-0.0226 0.839-0.0332 1.254-0.0332 0.448 0 0.897 0.0107 1.502 0.0332 0.067-0.0676 0.089-0.3031 0-0.3926l-0.315-0.0429c-0.291-0.056-0.549-0.1243-0.65-0.3594-0.123-0.3023-0.168-1.1416-0.168-2.0488v-2.1719c0-0.4145 0.001-0.6047 0.057-0.7168 0.202 0.1678 0.582 0.6274 1.22 1.4336l2.586 3.2011c0.524 0.6496 0.894 1.2207 0.904 1.2207 0.27 0 0.59-0.1233 0.66-0.2578-0.02-0.3695-0.02-1.0748-0.02-1.8027v-2.6758c0-0.9065 0.05-1.7465 0.17-2.0488 0.1-0.2354 0.31-0.3019 0.6-0.3691l0.21-0.0332c0.09-0.0899 0.06-0.325 0-0.3926-0.44 0.0226-0.84 0.0332-1.26 0.0332-0.46 0-0.89-0.0107-1.498-0.0332-0.068 0.0676-0.09 0.3027 0 0.3926l0.303 0.0449c0.305 0.0556 0.545 0.1219 0.645 0.3574 0.13 0.3023 0.17 1.1423 0.17 2.0488v1.5449c0 0.2017 0 0.3922-0.04 0.504-0.26-0.2574-0.57-0.6502-1.078-1.2325l-0.941-1.1074c-1.008-1.198-1.734-2.0488-1.846-2.5527-0.235 0.0226-0.561 0.0332-0.942 0.0332-0.459 0-1.018-0.0107-1.544-0.0332zm10.421 0c-0.09 0.0676-0.09 0.3253 0 0.3926l0.32 0.0546c0.51 0.0895 0.58 0.1683 0.58 1.2207v4.1211c0 1.0528-0.07 1.1312-0.58 1.2207l-0.32 0.0547c-0.09 0.0673-0.09 0.325 0 0.3926 0.61-0.0226 1.17-0.0332 1.71-0.0332 0.52 0 1.07 0.0107 1.68 0.0332 0.08-0.0676 0.1-0.3254 0.01-0.3926l-0.32-0.0547c-0.51-0.0895-0.58-0.1679-0.58-1.2207v-4.1211c0-1.0524 0.07-1.1312 0.58-1.2207l0.32-0.0546c0.09-0.0673 0.09-0.325 0-0.3926-0.61 0.0226-1.17 0.0332-1.69 0.0332-0.54 0-1.1-0.0107-1.71-0.0332zm5.39 0c-0.1 0.056-0.13 0.2575-0.05 0.3808l0.32 0.0782c0.54 0.1344 0.51 0.0895 0.97 1.2207l1.82 4.5566c0.15 0.3807 0.34 0.9751 0.47 1.2773 0.06 0.056 0.16 0.0899 0.3 0.0899 0.17 0 0.3-0.0337 0.39-0.0899 0.26-0.6268 0.56-1.512 1.13-2.8671l0.82-1.9375c0.39-0.9069 0.68-1.5114 0.93-1.8809 0.14-0.2351 0.3-0.3238 0.61-0.3906l0.3-0.0567c0.08-0.0672 0.06-0.3359-0.03-0.3808-0.32 0.0226-0.66 0.0332-1.04 0.0332-0.42 0-0.85-0.0107-1.37-0.0332-0.14 0.056-0.14 0.2913-0.05 0.3808l0.32 0.0782c0.27 0.056 0.31 0.1114 0.31 0.1894 0 0.0673-0.04 0.1911-0.12 0.4043-0.13 0.3803-0.59 1.6346-0.88 2.3399l-0.41 1.0527c-0.14 0.3361-0.27 0.6376-0.36 0.8281-0.08-0.1905-0.19-0.4469-0.35-0.8613l-0.98-2.5195c-0.27-0.6714-0.45-1.1426-0.45-1.2325 0-0.1006 0.08-0.1683 0.28-0.2129l0.33-0.0664c0.07-0.1006 0.08-0.3132-0.01-0.3808-0.68 0.0226-1.16 0.0332-1.68 0.0332-0.58 0-0.95-0.0217-1.52-0.0332zm9.81 0c-0.11 0.0676-0.12 0.3253-0.02 0.3926l0.28 0.0546c0.5 0.0895 0.57 0.1685 0.57 1.1875v4.1758c0 1.0301-0.07 1.109-0.57 1.1758l-0.53 0.0781c-0.09 0.0562-0.09 0.325 0 0.3926 0.84-0.0226 1.39-0.0332 1.93-0.0332h1.45c0.92 0 2 0.0107 2.59 0.0332 0.16-0.3027 0.42-1.2087 0.47-1.791-0.05-0.1344-0.32-0.18-0.41-0.0567-0.62 1.2653-1 1.2989-1.98 1.2989-0.81 0-1.03-0.0894-1.17-0.291-0.14-0.1906-0.18-0.549-0.18-1.0645v-1.332c0-0.3361 0.01-0.3457 0.31-0.3457h0.78c0.58 0 0.7 0.0892 0.82 0.6269l0.06 0.2793c0.08 0.101 0.36 0.0891 0.41-0.0117-0.02-0.358-0.03-0.7604-0.03-1.1855 0-0.4256 0.01-0.8292 0.03-1.1875-0.05-0.101-0.33-0.1015-0.41-0.0118l-0.06 0.2813c-0.12 0.5373-0.24 0.6152-0.82 0.6152h-0.78c-0.3 0-0.31-0.0225-0.31-0.3359v-1.959-0.002c0-0.414 0-0.4355 0.37-0.4355h0.89c0.55 0 0.89 0.1349 1.1 0.3477 0.15 0.157 0.3 0.4906 0.43 0.8828 0.11 0.1006 0.37 0.0783 0.41-0.045-0.05-0.7501-0.13-1.555-0.14-1.7343-0.15 0.0226-0.79 0.0332-1.5 0.0332h-2.38c-0.54 0-1.08-0.0107-1.61-0.0332zm11.37 0c-1.06 0-1.93 0.0436-2.77 0.0996-0.14 0.0561-0.14 0.3369-0.02 0.3926l0.3 0.0449c0.47 0.0669 0.49 0.1905 0.49 1.3105v3.9629c0 1.0301-0.07 1.1097-0.57 1.1992l-0.3 0.0547c-0.09 0.0562-0.09 0.325 0 0.3926 0.58-0.0226 1.07-0.0332 1.63-0.0332 0.54 0 1.05 0.0107 1.65 0.0332 0.08-0.0676 0.08-0.3365 0-0.3926l-0.31-0.0547c-0.5-0.0895-0.57-0.1691-0.57-1.1992v-1.3769c0-0.2244 0.03-0.2461 0.42-0.2461 0.28 0 0.46 0.0903 0.59 0.3925 0.26 0.5931 0.52 1.141 0.87 1.7344 0.5 0.8062 1.15 1.1758 2.18 1.1758 0.34 0 0.7-0.0209 0.88-0.0996 0.06-0.0669 0.06-0.2353-0.04-0.291-0.17-0.0113-0.46-0.079-0.75-0.3145-0.54-0.459-1-1.2985-1.74-2.7988-0.06-0.1229-0.06-0.1904 0.06-0.2461 0.51-0.2577 1.18-0.6833 1.18-1.6797 0-0.7167-0.33-1.2775-0.98-1.6582-0.43-0.2577-1.24-0.4023-2.2-0.4023zm14.01 0c-0.09 0.0676-0.09 0.3253 0 0.3926l0.31 0.0546c0.52 0.0895 0.58 0.1683 0.58 1.2207v4.1211c0 1.0528-0.06 1.1312-0.58 1.2207l-0.31 0.0547c-0.09 0.0673-0.09 0.325 0 0.3926 0.6-0.0226 1.16-0.0332 1.7-0.0332 0.53 0 1.07 0.0107 1.68 0.0332 0.09-0.0676 0.1-0.3254 0.01-0.3926l-0.31-0.0547c-0.52-0.0895-0.59-0.1679-0.59-1.2207v-4.1211c0-1.0524 0.07-1.1312 0.59-1.2207l0.31-0.0546c0.09-0.0673 0.09-0.325 0-0.3926-0.6 0.0226-1.16 0.0332-1.69 0.0332-0.54 0-1.1-0.0107-1.7-0.0332zm14.8 0c-0.13 0.0337-0.14 0.3027-0.04 0.3926l0.38 0.0664c0.39 0.0783 0.49 0.246 0.72 0.705l1.33 2.7539c0.29 0.5935 0.3 0.7744 0.3 1.334v0.5586c0 1.0413-0.07 1.1205-0.57 1.1992l-0.38 0.0567c-0.09 0.0672-0.09 0.323 0 0.3906 0.66-0.0226 1.22-0.0332 1.76-0.0332 0.53 0 1.08 0.0107 1.81 0.0332 0.08-0.0676 0.08-0.3234 0-0.3906l-0.45-0.0567c-0.5-0.0787-0.57-0.1579-0.57-1.1992v-0.7832c0-0.6383 0.11-0.9171 0.4-1.4433l0.71-1.2774c0.54-0.974 0.82-1.3771 0.99-1.5898 0.12-0.1568 0.33-0.225 0.53-0.2696l0.29-0.0546c0.09-0.0784 0.09-0.3477-0.04-0.3926-0.32 0.0226-0.67 0.0332-1.1 0.0332-0.4 0-0.81-0.0107-1.25-0.0332-0.11 0.056-0.1 0.3365-0.01 0.3926l0.25 0.0449c0.27 0.0445 0.38 0.089 0.38 0.1562 0 0.1341-0.15 0.5042-0.58 1.2989-0.3 0.5715-0.61 1.221-0.94 1.7695-0.13-0.2796-0.35-0.7278-0.51-1.0977l-0.53-1.1992c-0.23-0.5262-0.29-0.6937-0.29-0.7832 0-0.0112 0.07-0.0566 0.27-0.1016l0.38-0.0878c0.1-0.0899 0.08-0.3477-0.02-0.3926-0.38 0.0226-0.96 0.0332-1.64 0.0332-0.66 0-1.07-0.0107-1.58-0.0332zm24.55 0c-0.12 0.045-0.12 0.3234-0.02 0.3906l0.22 0.0352c0.51 0.101 0.57 0.179 0.57 1.2207v4.164c0 1.0413-0.06 1.1205-0.57 1.1992l-0.37 0.0547c-0.09 0.0673-0.09 0.325 0 0.3926 0.68-0.0226 1.24-0.0332 1.75-0.0332 0.54 0 1.09 0.0107 1.78 0.0332 0.08-0.0676 0.08-0.3254 0-0.3926l-0.41-0.0547c-0.51-0.0787-0.57-0.1579-0.57-1.1992v-1.5117c0-0.3019 0.01-0.3359 0.31-0.3359h0.86c0.59 0 0.71 0.0895 0.83 0.6269l0.06 0.2695c0.07 0.1007 0.35 0.0891 0.42-0.0117-0.02-0.3361-0.03-0.7496-0.03-1.164 0-0.4256 0.01-0.8409 0.03-1.1993-0.07-0.1006-0.35-0.1102-0.42-0.0097l-0.06 0.2676c-0.12 0.5485-0.24 0.6269-0.83 0.6269h-0.86c-0.3 0-0.31-0.0337-0.31-0.3359v-2.0254c0-0.4364-0.01-0.459 0.36-0.459h0.88c0.57 0 0.9 0.1341 1.09 0.3691 0.12 0.1456 0.21 0.4141 0.33 0.8731 0.13 0.0895 0.38 0.0784 0.42-0.0449-0.02-0.7498-0.02-1.5556-0.02-1.7461-0.15 0.0226-0.79 0.0332-1.51 0.0332h-2.35c-0.54 0-1.1-0.0107-1.58-0.0332zm-6.89 0.3691c1.39 0 2.23 1.5556 2.23 3.4707 0 1.8137-0.57 3.2481-2.04 3.2481-1.82 0-2.31-2.1943-2.31-3.5606 0-1.8698 0.74-3.1582 2.12-3.1582zm-46.46 0.1465c0.88 0 1.47 0.6484 1.47 1.6562 0 0.6607-0.21 1.0185-0.4 1.209-0.21 0.2128-0.45 0.3145-0.85 0.3145-0.66 0-0.7-0.0341-0.7-0.4258v-2.1836c0.03-0.5373 0.03-0.5703 0.48-0.5703zm-27.77 11.215c-0.54 0.948-1.45 1.402-2.27 1.814 0.08 0.33 0.08 0.659 0.08 1.072 0 1.238-0.51 2.764-0.82 3.713l-5.02 14.729c-0.51 1.527-0.979 3.134-1.606 4.619-0.979 2.31-1.412 2.641-3.803 2.93v1.072c1.568-0.041 3.175-0.082 4.743-0.082 1.528 0 3.096 0.082 4.625 0.082v-1.072h-0.903c-1.371-0.083-2.664-0.001-2.664-1.94 0-1.278 0.549-3.176 1.059-4.908l0.861-2.889h9.208l1.96 5.983c0.28 0.784 0.59 1.938 0.59 2.392 0 1.155-1.18 1.362-2.16 1.362h-0.7v1.072c1.92-0.041 3.8-0.082 5.72-0.082 1.49 0 3.02 0.082 4.51 0.082v-1.072c-1.26 0-2.43-0.289-3.02-1.114-0.63-0.907-1.68-4.414-2.23-6.023l-7.49-21.74h-0.67zm-52.696 1.154v1.072c1.293 0 2.156 0.165 2.705 0.66 0.548 0.495 0.744 1.404 0.744 2.848 0 5.652-0.273 11.262-0.43 16.914-0.157 5.528-1.883 6.229-4.666 6.229v1.072c1.725-0.041 3.488-0.082 5.213-0.082 1.607 0 3.253 0.082 4.859 0.082v-1.072c-1.567 0-2.547-0.124-3.173-0.702-0.628-0.577-0.823-1.692-0.823-3.712 0-0.579 0.039-2.062 0.039-2.598l0.313-14.936h0.08c3.723 7.797 7.485 15.513 10.816 23.393h0.784c0.313-1.073 1.098-3.096 1.529-4.086l9.248-20.213h0.078l0.275 19.678c0 1.609-0.314 2.392-1.019 2.804-0.666 0.372-1.646 0.372-3.018 0.372v1.072c1.921-0.041 3.803-0.082 5.723-0.082 2.155 0 4.311 0.082 6.467 0.082v-1.072c-3.92 0-4.195-0.907-4.274-4-0.156-6.23-0.507-13.162-0.507-19.68 0-1.361 0.234-2.062 0.744-2.475 0.509-0.412 1.409-0.496 2.742-0.496v-1.072c-1.136 0-2.313 0.082-3.449 0.082-1.058 0-2.155-0.041-3.213-0.082-3.253 7.838-7.055 15.43-10.582 23.144l-10.541-23.144c-0.823 0-1.687 0.082-2.51 0.082-1.372 0-2.783-0.041-4.154-0.082zm69.636 0v1.072c2.08 0.041 3.57 0.083 3.57 2.971v20.709c0 2.888-1.49 2.929-3.57 2.971v1.072c1.96-0.041 3.8-0.082 5.69-0.082 1.72 0 3.41 0.082 5.29 0.082v-1.072c-2.08-0.042-3.57-0.083-3.57-2.971v-20.709c0-2.888 1.49-2.93 3.57-2.971v-1.072c-1.96 0.041-3.77 0.082-5.57 0.082-1.76 0-3.56-0.041-5.41-0.082zm14.26 0v1.072c3.37 0 4.82 1.28 4.82 4.828v16.584c0 5.239-1.8 5.239-4.19 5.239v1.072c1.72-0.041 3.49-0.082 5.21-0.082s3.49 0.082 5.21 0.082v-1.072c-4.23 0-4.66-1.155-4.66-6.848v-15.389l20.5 23.682h0.9v-23.846c0-4.043 1.29-4.25 3.68-4.25v-1.072c-1.53 0-3.02 0.082-4.54 0.082-1.81 0-3.65-0.041-5.45-0.082v1.072c3.92 0.041 4.74 1.197 4.74 4.992v16.42c-2.66-3.053-6.35-7.138-9.68-11.015-4.47-5.198-8.11-8.952-9.72-11.469-1.06 0-2.15 0.082-3.21 0.082-1.22 0-2.39-0.041-3.61-0.082zm35.15 0v1.072c3.1 0.124 3.73 0.289 3.73 3.672v18.316c0 4.002-0.32 4.663-3.73 4.663v1.072c2.9-0.083 5.81-0.082 8.71-0.082 3.92 0 7.83 0.082 11.75 0.082 0.4-2.145 0.98-4.249 1.61-6.311l-0.94-0.166c-1.53 4.414-3.25 4.95-7.09 5.157h-2.43c-3.88 0-4.04-1.154-4.04-5.733v-7.014h4.19c3.02 0 4.27-0.001 4.27 3.959h0.79c0.04-1.32-0.16-3.258-0.16-4.578 0-1.485 0.08-3.714 0.16-4.621h-0.79c-0.11 0.949-0.11 3.549-3.29 3.549h-5.17v-11.717h4.58c3.92 0 5.69 1.155 6.27 5.033l0.79-0.207v-6.146c-3.8 0.083-7.52 0.082-11.29 0.082-2.62 0-5.29 0.001-7.92-0.082zm-67.72 4.166h0.08l4.2 12.129h-8.079l3.799-12.129zm-101.01 26.137s13.676 4.586 20.432 12.23c0.017 0.02 0.106 0.02 0.123 0 6.755-7.644 20.431-12.23 20.431-12.23h-20.554-20.432z" transform="matrix(.8 0 0 -.8 229.09 419.65)" fill="#003263"/><path d="m5.9258 2.1797l-2.582 1.1172v0.2656c0.3479-0.1329 0.6964-0.2559 0.8398-0.2559 0.3996 0 0.3984 0.4512 0.3984 0.7071v3.9433c0 0.6354-0.0304 1.0355-1.2187 1.0254v0.2461h3.8418v-0.2461c-1.0138 0-1.1055-0.2762-1.1055-0.9629v-5.8398h-0.1738zm10.031 0c-1.639 0-2.326 0.8713-2.326 1.8242 0 0.85 0.655 1.4743 1.424 1.9043-0.687 0.2154-1.537 0.6158-1.537 1.7324 0 1.1267 1.036 1.7207 2.142 1.7207 1.465 0 2.406-0.7996 2.406-2.0801 0-0.9529-0.654-1.6689-1.535-2.1914 0.564-0.1842 1.393-0.5529 1.393-1.4238 0-0.5841-0.41-1.4863-1.967-1.4863zm12.645 0c-3.074 0.3075-4.53 2.2737-4.53 4.1387 0 2.4583 1.426 3.0429 2.348 3.0429 1.844 0 2.232-1.7415 2.232-2.2949 0-1.7617-1.148-2.1523-1.855-2.1523-0.492 0-0.676 0.0732-0.922 0.1757 0.451-1.885 1.702-2.4395 2.727-2.6445v-0.2656zm7.255 0.123l-0.994 3.5352c0.738 0.0509 1.517 0.1011 2.203 0.4082 0.543 0.2358 1.096 0.748 1.096 1.373 0 0.84-0.677 1.0664-1.025 1.0664-0.646 0-1.229-0.8925-1.936-0.8925-0.441 0-0.635 0.3285-0.635 0.6152 0 0.5838 0.676 0.9023 1.465 0.9023 1.865 0 2.93-1.1266 2.93-2.4687 0-1.0034-0.606-1.65-1.066-1.9063-0.687-0.3888-1.32-0.451-2.252-0.5019l0.224-0.8301h2.848l0.441-1.3008h-3.299zm-20.064 0.1739c0.758 0 0.912 0.7271 0.912 1.25 0 0.6142-0.184 0.8602-0.42 1.1777-0.102-0.0516-1.332-0.6448-1.332-1.5977 0-0.42 0.338-0.83 0.84-0.83zm10.432 2.8984c0.706 0 0.871 0.7785 0.871 2.2539 0 0.8096-0.001 1.4551-0.625 1.4551-0.636 0-0.789-0.634-0.789-2.6524 0-0.3379 0.081-0.9122 0.091-0.9218 0.113-0.1233 0.287-0.1348 0.452-0.1348zm-10.944 0.7188c0.697 0.4608 1.362 0.9002 1.362 1.7402 0 0.2666-0.001 1.1992-0.913 1.1992-0.665 0-0.972-0.6766-0.972-1.4141 0-0.7479 0.216-1.0645 0.523-1.5253zm13.119 5.6112c-2.822 7.158-11.453 12.375-13.662 12.375v25.41c4.632-2.856 7.408-4.493 10.797-8.25 1.626-1.801 2.865-2.89 2.865-5.095v-24.44zm10.674 1.891c-1.94 5.506-7.874 9.517-9.392 9.517v19.545c3.184-2.197 5.094-3.454 7.423-6.344 1.118-1.385 1.969-2.224 1.969-3.919v-18.799zm-25.617 0.002c-1.94 5.505-7.8744 9.517-9.3925 9.517v19.543c3.184-2.197 5.0939-3.454 7.4235-6.344 1.118-1.385 1.969-2.224 1.969-3.919v-18.797z" transform="matrix(.8 0 0 -.8 229.09 419.65)" fill="#fff"/></g></g></svg>
